<svg viewBox="0 0 25 50" xmlns="http://www.w3.org/2000/svg">
<path fill-rule="evenodd" clip-rule="evenodd" d="M21.875 6.25V37.5C21.875 42.6766 17.6766 46.875 12.5 46.875C7.32344 46.875 3.125 42.6766 3.125 37.5V9.375C3.125 5.92344 5.92344 3.125 9.375 3.125C12.8266 3.125 15.625 5.92344 15.625 9.375V37.5C15.625 39.225 14.225 40.625 12.5 40.625C10.775 40.625 9.375 39.225 9.375 37.5V12.5H6.25V37.5C6.25 40.9516 9.04844 43.75 12.5 43.75C15.9516 43.75 18.75 40.9516 18.75 37.5V9.375C18.75 4.19844 14.5516 0 9.375 0C4.19844 0 0 4.19844 0 9.375V39.0625C0.770313 45.2266 6.12656 50 12.5 50C18.8734 50 24.2297 45.2266 25 39.0625V6.25H21.875Z" />
</svg>
