<svg viewBox="0 0 449 512" xmlns="http://www.w3.org/2000/svg">
<path d="M439.391 362.29C420.071 341.53 383.921 310.3 383.921 208C383.921 130.3 329.441 68.1 255.981 52.84V32C255.981 14.33 241.661 0 224.001 0C206.341 0 192.021 14.33 192.021 32V52.84C118.561 68.1 64.0807 130.3 64.0807 208C64.0807 310.3 27.9307 341.53 8.61069 362.29C2.61069 368.74 -0.0493086 376.45 0.000691388 384C0.110691 400.4 12.9807 416 32.1007 416H415.901C435.021 416 447.901 400.4 448.001 384C448.051 376.45 445.391 368.73 439.391 362.29ZM67.5307 368C88.7507 340.03 111.951 293.67 112.061 208.58C112.061 208.38 112.001 208.2 112.001 208C112.001 146.14 162.141 96 224.001 96C285.861 96 336.001 146.14 336.001 208C336.001 208.2 335.941 208.38 335.941 208.58C336.051 293.68 359.251 340.04 380.471 368H67.5307ZM224.001 512C259.321 512 287.971 483.35 287.971 448H160.031C160.031 483.35 188.681 512 224.001 512Z"/>
</svg>
