<svg width="26" height="21" viewBox="0 0 26 21" fill="none" xmlns="http://www.w3.org/2000/svg">
<path d="M1.1115 2.5832C0.718769 2.5832 0.400391 2.17618 0.400391 1.67411C0.400391 1.17203 0.718769 0.765015 1.1115 0.765015H25.2893C25.682 0.765015 26.0004 1.17203 26.0004 1.67411C26.0004 2.17618 25.682 2.5832 25.2893 2.5832H1.1115ZM1.1115 11.6741C0.718769 11.6741 0.400391 11.267 0.400391 10.765C0.400391 10.263 0.718769 9.85592 1.1115 9.85592H25.2893C25.682 9.85592 26.0004 10.263 26.0004 10.765C26.0004 11.267 25.682 11.6741 25.2893 11.6741H1.1115ZM1.1115 20.765C0.718769 20.765 0.400391 20.3579 0.400391 19.8559C0.400391 19.3539 0.718769 18.9468 1.1115 18.9468H25.2893C25.682 18.9468 26.0004 19.3539 26.0004 19.8559C26.0004 20.3579 25.682 20.765 25.2893 20.765H1.1115Z" fill="#222222"/>
</svg>
