<svg width="15" height="17" viewBox="0 0 15 17" fill="none" xmlns="http://www.w3.org/2000/svg">
<path d="M14.3333 6.5H0.666672C0.400005 6.5 0.166672 6.73333 0.166672 7V15.1667C0.166672 15.9 0.766672 16.5 1.5 16.5H13.5C14.2333 16.5 14.8333 15.9 14.8333 15.1667V7C14.8333 6.73333 14.6 6.5 14.3333 6.5ZM5.16667 13.8333C5.16667 14.0333 5.03334 14.1667 4.83334 14.1667H3.5C3.3 14.1667 3.16667 14.0333 3.16667 13.8333V12.5C3.16667 12.3 3.3 12.1667 3.5 12.1667H4.83334C5.03334 12.1667 5.16667 12.3 5.16667 12.5V13.8333ZM5.16667 10.5C5.16667 10.7 5.03334 10.8333 4.83334 10.8333H3.5C3.3 10.8333 3.16667 10.7 3.16667 10.5V9.16667C3.16667 8.96667 3.3 8.83333 3.5 8.83333H4.83334C5.03334 8.83333 5.16667 8.96667 5.16667 9.16667V10.5ZM8.5 13.8333C8.5 14.0333 8.36667 14.1667 8.16667 14.1667H6.83334C6.63334 14.1667 6.5 14.0333 6.5 13.8333V12.5C6.5 12.3 6.63334 12.1667 6.83334 12.1667H8.16667C8.36667 12.1667 8.5 12.3 8.5 12.5V13.8333ZM8.5 10.5C8.5 10.7 8.36667 10.8333 8.16667 10.8333H6.83334C6.63334 10.8333 6.5 10.7 6.5 10.5V9.16667C6.5 8.96667 6.63334 8.83333 6.83334 8.83333H8.16667C8.36667 8.83333 8.5 8.96667 8.5 9.16667V10.5ZM11.8333 13.8333C11.8333 14.0333 11.7 14.1667 11.5 14.1667H10.1667C9.96667 14.1667 9.83334 14.0333 9.83334 13.8333V12.5C9.83334 12.3 9.96667 12.1667 10.1667 12.1667H11.5C11.7 12.1667 11.8333 12.3 11.8333 12.5V13.8333ZM11.8333 10.5C11.8333 10.7 11.7 10.8333 11.5 10.8333H10.1667C9.96667 10.8333 9.83334 10.7 9.83334 10.5V9.16667C9.83334 8.96667 9.96667 8.83333 10.1667 8.83333H11.5C11.7 8.83333 11.8333 8.96667 11.8333 9.16667V10.5Z" fill="#404040"/>
<path d="M13.5 2.16667H12.1667H11.8333V1.5C11.8333 0.966667 11.4 0.5 10.8333 0.5C10.3 0.5 9.83334 0.933333 9.83334 1.5V2.16667H5.16667V1.5C5.16667 0.966667 4.73334 0.5 4.16667 0.5C3.63334 0.5 3.16667 0.933333 3.16667 1.5V2.16667H2.83334H1.5C0.766672 2.16667 0.166672 2.76667 0.166672 3.5V4.33333C0.166672 4.6 0.400005 4.83333 0.666672 4.83333H14.3333C14.6 4.83333 14.8333 4.6 14.8333 4.33333V3.5C14.8333 2.76667 14.2333 2.16667 13.5 2.16667Z" fill="#404040"/>
</svg>
