<svg viewBox="0 0 20 17" fill='none' xmlns="http://www.w3.org/2000/svg">
<path d="M9.96268 1.57464H4.74068C3.77934 1.57464 3.00002 2.35396 3.00002 3.3153V13.7593C3.00002 14.7206 3.77934 15.5 4.74068 15.5H15.1847C16.1461 15.5 16.9254 14.7206 16.9254 13.7593V8.53733M15.5452 5.41646L16.4902 4.4715C17.1699 3.79172 17.1699 2.68959 16.4902 2.00983C15.8104 1.33006 14.7083 1.33006 14.0284 2.00984L13.0835 2.95479M15.5452 5.41646L10.2916 10.6701C10.0486 10.9131 9.73909 11.0788 9.40219 11.1462L6.84186 11.6582L7.35392 9.09791C7.42132 8.76092 7.58695 8.45143 7.82994 8.20843L13.0835 2.95479M15.5452 5.41646L13.0835 2.95479" stroke-width="1.1" stroke-linecap="round" stroke-linejoin="round"/>
</svg>
