<svg viewBox="0 0 130 130" xmlns="http://www.w3.org/2000/svg">
<path fill-rule="evenodd" clip-rule="evenodd" d="M65 14.4444C58.361 14.4444 51.7869 15.7521 45.6532 18.2928C39.5195 20.8334 33.9463 24.5573 29.2518 29.2518C24.5573 33.9463 20.8334 39.5195 18.2928 45.6532C15.7521 51.7869 14.4444 58.361 14.4444 65C14.4444 71.6391 15.7521 78.2131 18.2928 84.3468C20.8334 90.4805 24.5573 96.0537 29.2518 100.748C33.9463 105.443 39.5195 109.167 45.6532 111.707C51.7869 114.248 58.361 115.556 65 115.556C78.4082 115.556 91.2672 110.229 100.748 100.748C110.229 91.2672 115.556 78.4082 115.556 65C115.556 51.5918 110.229 38.7328 100.748 29.2518C91.2672 19.7708 78.4082 14.4444 65 14.4444ZM0 65C0 47.7609 6.8482 31.2279 19.0381 19.0381C31.2279 6.8482 47.7609 0 65 0C82.2391 0 98.7721 6.8482 110.962 19.0381C123.152 31.2279 130 47.7609 130 65C130 82.2391 123.152 98.7721 110.962 110.962C98.7721 123.152 82.2391 130 65 130C47.7609 130 31.2279 123.152 19.0381 110.962C6.8482 98.7721 0 82.2391 0 65ZM72.2944 93.8889C72.2944 95.8043 71.5335 97.6413 70.1791 98.9958C68.8247 100.35 66.9877 101.111 65.0722 101.111H65C63.0845 101.111 61.2475 100.35 59.8931 98.9958C58.5387 97.6413 57.7778 95.8043 57.7778 93.8889C57.7778 91.9734 58.5387 90.1364 59.8931 88.782C61.2475 87.4276 63.0845 86.6667 65 86.6667H65.0722C66.9877 86.6667 68.8247 87.4276 70.1791 88.782C71.5335 90.1364 72.2944 91.9734 72.2944 93.8889ZM72.2222 36.1111C72.2222 34.1957 71.4613 32.3587 70.1069 31.0042C68.7525 29.6498 66.9155 28.8889 65 28.8889C63.0845 28.8889 61.2475 29.6498 59.8931 31.0042C58.5387 32.3587 57.7778 34.1957 57.7778 36.1111V72.2222C57.7778 74.1377 58.5387 75.9747 59.8931 77.3291C61.2475 78.6835 63.0845 79.4444 65 79.4444C66.9155 79.4444 68.7525 78.6835 70.1069 77.3291C71.4613 75.9747 72.2222 74.1377 72.2222 72.2222V36.1111Z" />
</svg>
