<svg width="22" height="16" viewBox="0 0 22 16" fill="none" xmlns="http://www.w3.org/2000/svg">
<path d="M21.873 7.50533C21.7513 7.198 18.7992 0 11.352 0C3.90476 0 0.952617 7.198 0.830869 7.50533C0.70514 7.823 0.70514 8.17733 0.830869 8.495C0.952617 8.802 3.90476 16 11.352 16C18.7992 16 21.7513 8.802 21.873 8.49467C21.9988 8.177 21.9988 7.823 21.873 7.50533ZM11.352 10.6667C9.88634 10.6667 8.69805 9.47267 8.69805 8C8.69805 6.52733 9.88634 5.33333 11.352 5.33333C12.8176 5.33333 14.0059 6.52733 14.0059 8C14.0059 9.47267 12.8176 10.6667 11.352 10.6667Z" fill="#404040"/>
</svg>
