<svg viewBox="0 0 81 92" xmlns="http://www.w3.org/2000/svg">
<path d="M79.5813 6.50398C79.0603 6.14322 78.4594 5.91631 77.8308 5.84314C77.2022 5.76997 76.5653 5.85279 75.9758 6.08436C69.7556 8.73977 63.1948 10.5054 56.4855 11.3295C52.242 10.1902 48.1914 8.42239 44.4673 6.08436C39.6569 3.11105 34.3433 1.04882 28.7914 0C19.8723 0.791807 11.0915 2.73088 2.6649 5.76966C1.88863 6.03286 1.21405 6.53366 0.736036 7.20163C0.258026 7.86966 0.000627036 8.67122 0 9.49371V88.0661C0 89.1094 0.412902 90.1097 1.14784 90.8476C1.88278 91.5851 2.87961 92 3.91897 92C4.95834 92 5.95517 91.5851 6.69011 90.8476C7.42505 90.1097 7.83795 89.1094 7.83795 88.0661V57.3821C14.344 55.0181 21.1204 53.4849 28.0076 52.8188C32.4303 53.914 36.6591 55.6832 40.5483 58.0639C45.0949 60.8533 50.0761 62.8569 55.2837 63.9909H56.4855C64.0533 63.0316 71.4549 61.0374 78.484 58.0639C79.2223 57.7776 79.8577 57.2735 80.305 56.6184C80.7528 55.9627 80.9927 55.187 80.9921 54.3923V9.75597C81.0313 9.1404 80.9237 8.5243 80.6786 7.95877C80.433 7.39319 80.0568 6.89448 79.5813 6.50398ZM73.4677 51.7698C68.0391 54.0257 62.3232 55.5085 56.4855 56.1757C52.242 55.0364 48.1914 53.2683 44.4673 50.9305C39.6569 47.9571 34.3433 45.8947 28.7914 44.8462H27.7463C21.0201 45.4541 14.3897 46.8629 7.99471 49.0423V12.3261C14.5007 9.9621 21.2772 8.42894 28.1644 7.76281C32.5871 8.85847 36.8159 10.6273 40.7051 13.008C45.2516 15.7976 50.2329 17.8011 55.4404 18.935C61.5718 18.6936 67.6159 17.3985 73.3109 15.106L73.4677 51.7698Z" />
</svg>
