<svg viewBox="0 0 734 767" xmlns="http://www.w3.org/2000/svg">
<path fill-rule="evenodd" clip-rule="evenodd" d="M366.673 250C293.037 250 233.341 309.695 233.341 383.333C233.341 456.97 293.037 516.667 366.673 516.667C440.313 516.667 500.007 456.97 500.007 383.333C500.007 309.695 440.313 250 366.673 250ZM300.007 383.333C300.007 346.513 329.857 316.667 366.673 316.667C403.493 316.667 433.34 346.513 433.34 383.333C433.34 420.153 403.493 450 366.673 450C329.857 450 300.007 420.153 300.007 383.333Z"/>
<path fill-rule="evenodd" clip-rule="evenodd" d="M342.89 0C296.194 0 254.87 32.2483 245.724 78.535L243.088 91.874C236.83 123.546 202.065 144.353 168.17 132.938L154.942 128.482C110.749 113.599 61.291 130.989 37.2787 171.311L13.4973 211.245C-10.7424 251.949 -1.52172 303.496 34.6423 333.807L45.238 342.687C70.9797 364.263 70.9797 402.403 45.238 423.98L34.6423 432.86C-1.52172 463.17 -10.7424 514.717 13.4973 555.42L37.2776 595.353C61.2906 635.677 110.75 653.067 154.944 638.183L168.169 633.727C202.064 622.31 236.83 643.117 243.088 674.79L245.724 688.13C254.87 734.417 296.195 766.667 342.89 766.667H390.453C437.153 766.667 478.477 734.417 487.623 688.127L490.257 674.793C496.513 643.12 531.28 622.31 565.177 633.727L578.403 638.183C622.597 653.067 672.057 635.677 696.07 595.353L719.85 555.423C744.09 514.72 734.867 463.17 698.703 432.86L688.107 423.98C662.363 402.407 662.363 364.26 688.107 342.687L698.703 333.807C734.867 303.496 744.09 251.948 719.85 211.244L696.07 171.311C672.057 130.989 622.6 113.598 578.407 128.481L565.173 132.938C531.28 144.353 496.513 123.545 490.257 91.8723L487.623 78.5387C478.477 32.2503 437.153 0 390.453 0H342.89ZM311.127 91.4583C313.83 77.778 326.61 66.6667 342.89 66.6667H390.453C406.737 66.6667 419.517 77.7787 422.22 91.4593L424.853 104.793C439.303 177.937 516.363 219.722 586.45 196.118L599.683 191.661C614.983 186.509 631.313 192.865 638.79 205.421L662.57 245.355C669.82 257.529 667.36 273.09 655.88 282.712L645.287 291.591C587.75 339.81 587.75 426.857 645.287 475.077L655.88 483.953C667.36 493.577 669.82 509.137 662.57 521.313L638.79 561.243C631.313 573.8 614.983 580.157 599.683 575.003L586.453 570.547C516.363 546.94 439.303 588.727 424.853 661.873L422.22 675.207C419.517 688.887 406.737 700 390.453 700H342.89C326.61 700 313.83 688.89 311.127 675.207L308.49 661.867C294.038 588.723 216.977 546.94 146.888 570.55L133.663 575.003C118.364 580.157 102.035 573.8 94.557 561.243L70.7767 521.31C63.5267 509.137 65.9863 493.577 77.466 483.953L88.0616 475.073C145.594 426.853 145.594 339.813 88.0616 291.593L77.466 282.712C65.9863 273.091 63.5267 257.53 70.7767 245.356L94.558 205.422C102.035 192.865 118.364 186.509 133.663 191.662L146.892 196.117C216.979 219.722 294.037 177.94 308.49 104.797L311.127 91.4583Z"/>
</svg>
