<svg viewBox="0 0 83 83" xmlns="http://www.w3.org/2000/svg">
<path d="M63.4905 24.5682H79.3808C81.5099 29.3019 82.7819 34.4871 83 39.9641H64.7686C64.6918 34.1768 64.2125 29.0776 63.4905 24.5682ZM56.5469 2.78305C65.6626 6.32483 73.1438 13.0275 77.8323 21.4903H62.9743C61.2876 12.8739 58.7252 6.74874 56.5469 2.78305ZM43.2436 21.4903V0C46.5187 0.144375 49.7017 0.663509 52.7433 1.5144C55.0476 5.39408 58.0247 11.8725 59.9019 21.4903H43.2436ZM23.0305 58.4379C22.3115 53.9254 21.8138 48.857 21.737 43.042H40.1651V58.4379H23.0305ZM22.9997 24.5682H40.1651V39.9641H21.7186C21.7954 34.1707 22.2808 29.0807 22.9997 24.5682ZM30.7083 1.44682C33.7407 0.629719 36.8991 0.110585 40.1651 0.00614388V21.4903H23.5067C25.3962 11.8203 28.3948 5.31728 30.7083 1.44682ZM5.12471 21.4903C9.88995 12.8893 17.6047 6.15281 26.9262 2.65711C24.7295 6.61973 22.1364 12.7787 20.4312 21.4903H5.12471ZM18.6401 39.9641H0.0215065C0.224283 34.4932 1.4563 29.2927 3.57931 24.5682H19.912C19.1962 29.0807 18.7138 34.1768 18.6401 39.9641ZM19.952 58.4379H3.69913C1.56691 53.6981 0.199704 48.5344 0 43.042H18.6523C18.7261 48.857 19.2299 53.9193 19.952 58.4379ZM20.4558 61.5158C22.1733 70.3135 24.8063 76.4663 27.0123 80.3828C17.6569 76.9025 9.93911 70.1384 5.16772 61.5158H20.4558ZM40.1651 61.5158V83C36.9329 82.8986 33.8145 82.3887 30.8097 81.587C28.4901 77.7902 25.4761 71.2565 23.5712 61.5158H40.1651ZM59.8436 61.5158C57.9479 71.1981 54.9524 77.7073 52.6419 81.5194C49.6341 82.3518 46.4788 82.8034 43.2436 82.9478V61.5158H59.8436ZM43.2436 43.042H61.6716C61.601 48.857 61.094 53.9224 60.3751 58.4379H43.2436V43.042ZM61.6901 39.9641H43.2436V24.5682H60.4058C61.1278 29.0807 61.6133 34.1707 61.6901 39.9641ZM64.7563 43.042H82.9631C82.7604 48.5313 81.4085 53.695 79.2855 58.4379H63.4567C64.1756 53.9193 64.6795 48.857 64.7563 43.042ZM77.8077 61.5158C73.1346 70.0124 65.6196 76.7182 56.464 80.2538C58.6607 76.3342 61.2599 70.2213 62.9559 61.5158H77.8077Z" />
</svg>
