<svg viewBox="0 0 800 800" xmlns="http://www.w3.org/2000/svg">
<path d="M800.8 400C800.8 187.475 633.875 13.2 424 0.774976C419.675 0.299976 415.35 -0.0250244 410.925 -0.0250244C409.625 -0.0250244 408.325 0.0999756 407.025 0.149976C404.7 0.0999756 402.375 -0.0250244 400 -0.0250244C179 -0.0250244 -0.799805 179.425 -0.799805 400C-0.799805 620.575 179 800.025 400 800.025C402.35 800.025 404.7 799.875 407.025 799.825C408.325 799.875 409.625 800.025 410.925 800.025C415.325 800.025 419.65 799.725 424 799.225C633.875 786.8 800.8 612.525 800.8 400ZM726.225 528.775C712.45 524.775 677.85 516.1 616.8 508.925C621.85 474.4 624.625 437.925 624.625 400C624.625 370.1 622.9 341.15 619.7 313.275C697.05 304.025 730.95 292.4 733.2 291.6L723.9 265.35C741.275 306.825 750.9 352.3 750.9 400C750.9 445.45 742.1 488.875 726.225 528.775ZM223.025 400C223.025 372.025 224.875 344.7 228.275 318.425C268.8 321.6 317.3 323.975 374.25 324.5V497.975C318.775 498.5 271.4 500.75 231.525 503.825C226.025 470.85 223.025 435.975 223.025 400ZM424.175 53.3C485.475 71.075 537.975 156.175 561.475 269C523.675 272 478.175 274.225 424.175 274.725V53.3ZM374.275 53.9V274.7C320.875 274.175 275.15 271.975 236.725 269.05C260.725 157.625 313.625 73.15 374.275 53.9ZM374.275 547.825V746.05C317.7 728.1 267.875 653.425 241.95 553.075C279.25 550.325 323.3 548.35 374.275 547.825ZM424.175 746.7V547.825C475.7 548.325 519.525 550.375 556.375 553.25C530.9 654.925 481.375 730.15 424.175 746.7ZM424.175 498V324.525C481.45 324 529.625 321.575 569.625 318.275C572.9 344.6 574.7 371.95 574.7 399.975C574.7 436.025 571.8 470.975 566.475 503.975C527.1 500.775 479.925 498.525 424.175 498ZM714.7 245.25C707.15 247.6 675.6 256.575 612.35 264.025C598.25 189.075 572.75 125 539.6 78.725C615.8 111.85 677.975 171.15 714.725 245.25H714.7ZM280.325 70.775C239.525 117.6 206.25 184.975 188.05 264.625C131.425 258.5 97.4752 251.275 83.9002 248C123.525 166.25 194.075 102.1 280.3 70.8L280.325 70.775ZM65.3502 294.675C74.9752 297.275 111.375 306.35 179.075 313.825C175.2 341.5 173.075 370.325 173.075 400C173.075 437.725 176.475 474 182.65 508.35C124.525 514.625 88.7752 522.15 72.7502 526C57.5752 486.85 49.1502 444.4 49.1502 399.975C49.1502 363.3 54.8502 327.9 65.3752 294.65L65.3502 294.675ZM94.6002 572.15C112.775 568.3 145.325 562.4 193.5 557.375C212.475 627.45 243.325 686.75 280.325 729.225C201.325 700.525 135.575 644.25 94.6002 572.15ZM539.575 721.225C569.45 679.6 593.075 623.55 607.775 558.1C657.325 563.775 688.425 570.45 704.1 574.4C666.6 639.3 608.9 691.125 539.575 721.225Z"/>

</svg>
