<svg viewBox="0 0 78 78" xmlns="http://www.w3.org/2000/svg">
<path d="M72.4286 22.2857C72.4286 25.3611 69.9326 27.8571 66.8571 27.8571H55.7143C52.6389 27.8571 50.1429 25.3611 50.1429 22.2857V11.1429C50.1429 8.06743 52.6389 5.57143 55.7143 5.57143H66.8571C69.9326 5.57143 72.4286 8.06743 72.4286 11.1429V22.2857ZM66.8571 0H55.7143C49.5606 0 44.5714 4.98921 44.5714 11.1429V22.2857C44.5714 28.4394 49.5606 33.4286 55.7143 33.4286H66.8571C73.0108 33.4286 78 28.4394 78 22.2857V11.1429C78 4.98921 73.0108 0 66.8571 0ZM72.4286 66.8571C72.4286 69.9326 69.9326 72.4286 66.8571 72.4286H55.7143C52.6389 72.4286 50.1429 69.9326 50.1429 66.8571V55.7143C50.1429 52.6389 52.6389 50.1429 55.7143 50.1429H66.8571C69.9326 50.1429 72.4286 52.6389 72.4286 55.7143V66.8571ZM66.8571 44.5714H55.7143C49.5606 44.5714 44.5714 49.5606 44.5714 55.7143V66.8571C44.5714 73.0108 49.5606 78 55.7143 78H66.8571C73.0108 78 78 73.0108 78 66.8571V55.7143C78 49.5606 73.0108 44.5714 66.8571 44.5714ZM27.8571 22.2857C27.8571 25.3611 25.3611 27.8571 22.2857 27.8571H11.1429C8.06743 27.8571 5.57143 25.3611 5.57143 22.2857V11.1429C5.57143 8.06743 8.06743 5.57143 11.1429 5.57143H22.2857C25.3611 5.57143 27.8571 8.06743 27.8571 11.1429V22.2857ZM22.2857 0H11.1429C4.98921 0 0 4.98921 0 11.1429V22.2857C0 28.4394 4.98921 33.4286 11.1429 33.4286H22.2857C28.4394 33.4286 33.4286 28.4394 33.4286 22.2857V11.1429C33.4286 4.98921 28.4394 0 22.2857 0ZM27.8571 66.8571C27.8571 69.9326 25.3611 72.4286 22.2857 72.4286H11.1429C8.06743 72.4286 5.57143 69.9326 5.57143 66.8571V55.7143C5.57143 52.6389 8.06743 50.1429 11.1429 50.1429H22.2857C25.3611 50.1429 27.8571 52.6389 27.8571 55.7143V66.8571ZM22.2857 44.5714H11.1429C4.98921 44.5714 0 49.5606 0 55.7143V66.8571C0 73.0108 4.98921 78 11.1429 78H22.2857C28.4394 78 33.4286 73.0108 33.4286 66.8571V55.7143C33.4286 49.5606 28.4394 44.5714 22.2857 44.5714Z"/>
</svg>
