<svg viewBox="0 0 66 63" xmlns="http://www.w3.org/2000/svg">
<path  clip-rule="evenodd" d="M56.1 34.7143H46.2C40.7319 34.7143 36.3 38.9351 36.3 44.1428V53.5714C36.3 58.7791 40.7319 63 46.2 63H56.1C61.5681 63 66 58.7791 66 53.5714V44.1428C66 38.9351 61.5681 34.7143 56.1 34.7143ZM19.8 34.7143H9.9C4.4319 34.7143 0 38.9351 0 44.1428V53.5714C0 58.7791 4.4319 63 9.9 63H19.8C25.2681 63 29.7 58.7791 29.7 53.5714V44.1428C29.7 38.9351 25.2681 34.7143 19.8 34.7143ZM56.1 0.142822H46.2C40.7319 0.142822 36.3 4.36368 36.3 9.57139V19C36.3 24.2077 40.7319 28.4285 46.2 28.4285H56.1C61.5681 28.4285 66 24.2077 66 19V9.57139C66 4.36368 61.5681 0.142822 56.1 0.142822ZM29.7 9.57139V19C29.7 24.2077 25.2681 28.4285 19.8 28.4285H9.9C4.4319 28.4285 0 24.2077 0 19V9.57139C0 4.36368 4.4319 0.142822 9.9 0.142822H19.8C25.2681 0.142822 29.7 4.36368 29.7 9.57139Z" />
</svg>
