<svg viewBox="0 0 666 668" xmlns="http://www.w3.org/2000/svg">
<path d="M373 133.333H159.667C151 133.333 142.667 133.667 134.667 134.667C45 142.333 0 195.333 0 293V426.333C0 559.667 53.3333 586 159.667 586H173C180.333 586 190 591 194.333 596.667L234.333 650C252 673.667 280.667 673.667 298.333 650L338.333 596.667C343.333 590 351.333 586 359.667 586H373C470.667 586 523.667 541.333 531.333 451.333C532.333 443.333 532.667 435 532.667 426.333V293C532.667 186.667 479.333 133.333 373 133.333ZM150 400C131.333 400 116.667 385 116.667 366.667C116.667 348.333 131.667 333.333 150 333.333C168.333 333.333 183.333 348.333 183.333 366.667C183.333 385 168.333 400 150 400ZM266.333 400C247.667 400 233 385 233 366.667C233 348.333 248 333.333 266.333 333.333C284.667 333.333 299.667 348.333 299.667 366.667C299.667 385 285 400 266.333 400ZM383 400C364.333 400 349.667 385 349.667 366.667C349.667 348.333 364.667 333.333 383 333.333C401.333 333.333 416.333 348.333 416.333 366.667C416.333 385 401.333 400 383 400Z" />
<path d="M666.007 159.667V293C666.007 359.667 645.34 405 604.006 430C594.006 436 582.34 428 582.34 416.333L582.673 293C582.673 159.667 506.34 83.3333 373.007 83.3333L170.008 83.6667C158.342 83.6667 150.342 72 156.342 62C181.342 20.6667 226.675 0 293.007 0H506.34C612.673 0 666.007 53.3333 666.007 159.667Z" />
</svg>
