<svg viewBox="0 0 65 58" xmlns="http://www.w3.org/2000/svg">
<path d="M32.5 58C31.7598 57.9993 31.0498 57.7031 30.5267 57.1763L5.32139 31.7523C1.91051 28.2524 0 23.5473 0 18.6469C0 13.7465 1.91051 9.04139 5.32139 5.54179C8.7775 2.06631 13.4648 0.113863 18.3522 0.113863C23.2397 0.113863 27.9269 2.06631 31.383 5.54179L32.5 6.51532L33.5424 5.46691C35.2513 3.72954 37.2868 2.35144 39.5303 1.41292C41.7738 0.474368 44.1808 -0.00584358 46.6105 0.000184794C49.038 -0.0107486 51.4431 0.463584 53.6866 1.39562C55.9298 2.3277 57.9667 3.69884 59.6786 5.42946C63.0893 8.92906 65 13.6342 65 18.5346C65 23.435 63.0893 28.1401 59.6786 31.6399L34.4732 57.0639C34.2238 57.3451 33.9203 57.5728 33.5812 57.7338C33.2423 57.8944 32.8745 57.985 32.5 58ZM18.3895 5.57924C16.6985 5.56684 15.0219 5.89137 13.4563 6.534C11.8908 7.17668 10.4672 8.12475 9.26787 9.32357C6.85109 11.7654 5.49432 15.0706 5.49432 18.5159C5.49432 21.9612 6.85109 25.2663 9.26787 27.7084L32.5 51.2228L55.6949 27.7833C56.8959 26.5765 57.849 25.1435 58.4991 23.566C59.1492 21.9889 59.4839 20.2982 59.4839 18.5908C59.4839 16.8833 59.1492 15.1927 58.4991 13.6154C57.849 12.0381 56.8959 10.6051 55.6949 9.39845C54.505 8.19739 53.0883 7.24749 51.5283 6.60447C49.9684 5.9615 48.2963 5.6384 46.6105 5.65412C44.9195 5.64173 43.243 5.96625 41.6774 6.60889C40.1118 7.25157 38.6881 8.19963 37.4889 9.39845L34.4732 12.4314C33.9404 12.9397 33.2342 13.223 32.5 13.223C31.7658 13.223 31.0595 12.9397 30.5267 12.4314L27.511 9.39845C26.3178 8.18611 24.8971 7.22423 23.3312 6.5686C21.7653 5.91297 20.0856 5.57665 18.3895 5.57924Z" />
</svg>
