<svg width="17" height="17" viewBox="0 0 17 17" xmlns="http://www.w3.org/2000/svg">
<path fill-rule="evenodd" clip-rule="evenodd" d="M0 8.51687V14.9168C0 15.8008 0.758119 16.5 1.69412 16.5H3.38822V6.90008H1.69412C0.758119 6.90008 0 7.63287 0 8.51687ZM16.881 9.58405L15.4088 14.812C15.1665 15.8048 14.2305 16.5 13.1514 16.5H5.08233V6.91688L6.53842 1.96092C6.71037 0.907328 7.86914 0.200129 9.04316 0.625725C9.74537 0.880923 10.1647 1.5713 10.1647 2.2825V6.11689C10.1647 6.55848 10.5441 6.90008 11.0117 6.90008H14.6236C16.1135 6.90008 17.2155 8.21366 16.881 9.58405Z" />
</svg>
