<svg viewBox="0 0 76 113" xmlns="http://www.w3.org/2000/svg">
<path fill-rule="evenodd" clip-rule="evenodd" d="M37.6667 0C58.4694 0 75.3333 16.8639 75.3333 37.6667C75.3333 44.5283 73.5038 50.9576 70.2929 56.5022C68.1524 60.1986 57.2769 79.0312 37.6667 113C18.0564 79.0312 7.18097 60.1986 5.04039 56.5022C1.82952 50.9576 0 44.5283 0 37.6667C0 16.8639 16.8639 0 37.6667 0ZM37.6667 21.5238C28.7512 21.5238 21.5238 28.7512 21.5238 37.6667C21.5238 46.5821 28.7512 53.8095 37.6667 53.8095C46.5821 53.8095 53.8095 46.5821 53.8095 37.6667C53.8095 28.7512 46.5821 21.5238 37.6667 21.5238Z" />
</svg>
