<svg width="18px" viewBox="0 0 23 21" xmlns="http://www.w3.org/2000/svg">
<path d="M0 4.063V16.282C0 17.407 0.469 18.407 1.219 19.188C1.969 19.938 2.938 20.344 4.063 20.344H10.188V17.813H4.063C3.219 17.813 2.563 17.125 2.563 16.282V4.063C2.563 3.219 3.219 2.563 4.063 2.563H10.188V0H4.063C2.938 0 1.969 0.438 1.219 1.188C0.469 1.969 0 2.938 0 4.063ZM6.719 7.751V12.626C6.719 13.189 7.219 13.657 7.782 13.657H13.438V17.501C13.438 17.845 13.626 18.126 13.938 18.282C14.063 18.313 14.188 18.313 14.251 18.313C14.47 18.313 14.657 18.25 14.814 18.094L22.158 10.75C22.502 10.469 22.471 9.906 22.158 9.594L14.814 2.281C14.376 1.812 13.439 2.093 13.439 2.844V6.719H7.783C7.22 6.719 6.72 7.188 6.72 7.75L6.719 7.751Z" />
</svg>
