<svg viewBox="0 0 75 75" xmlns="http://www.w3.org/2000/svg">
<path d="M53.6021 47.1698H50.2144L49.0137 46.012C53.2161 41.1235 55.7461 34.777 55.7461 27.8731C55.7461 12.4786 43.2676 0 27.8731 0C12.4786 0 0 12.4786 0 27.8731C0 43.2676 12.4786 55.7461 27.8731 55.7461C34.777 55.7461 41.1235 53.2161 46.012 49.0137L47.1698 50.2144V53.6021L68.6106 75L75 68.6106L53.6021 47.1698ZM27.8731 47.1698C17.1955 47.1698 8.57633 38.5506 8.57633 27.8731C8.57633 17.1955 17.1955 8.57633 27.8731 8.57633C38.5506 8.57633 47.1698 17.1955 47.1698 27.8731C47.1698 38.5506 38.5506 47.1698 27.8731 47.1698Z" />
</svg>
