<svg width="17" height="19" viewBox="0 0 17 19" fill="none" xmlns="http://www.w3.org/2000/svg">
<path d="M10.2354 0.634839C9.79628 0.662572 9.36925 0.780143 8.97457 1.00789C7.9221 1.61521 7.42332 2.81318 7.37824 4.08775C7.33316 5.36235 7.7088 6.78151 8.48729 8.12917C9.26577 9.47682 10.3101 10.5168 11.437 11.115C12.564 11.7133 13.849 11.8756 14.9015 11.2683C15.954 10.661 16.4513 9.47025 16.4964 8.19568C16.5415 6.92109 16.1673 5.49469 15.3888 4.14704C14.6103 2.79938 13.5646 1.76668 12.4376 1.16839C11.7333 0.794475 10.9673 0.588624 10.2354 0.634839ZM11.6452 4.12824C11.7962 4.13938 11.9428 4.16443 12.0848 4.20343C12.6529 4.35942 13.1356 4.72485 13.4078 5.20402C13.9523 6.16236 13.695 7.60262 12.4723 8.3128C12.3027 8.41108 12.1011 8.43811 11.9117 8.38797C11.7222 8.33782 11.5603 8.21459 11.4616 8.0453C11.3633 7.87574 11.3363 7.67412 11.3864 7.48465C11.4366 7.29519 11.5598 7.13334 11.7291 7.03459C12.3628 6.6665 12.3119 6.26665 12.1238 5.93567C11.9358 5.60466 11.6447 5.36463 10.9859 5.74481C10.9016 5.79323 10.8086 5.82457 10.7121 5.83705C10.6157 5.84952 10.5178 5.84288 10.4239 5.8175C10.3301 5.79213 10.2421 5.74851 10.1651 5.68915C10.0881 5.62978 10.0236 5.55583 9.97516 5.47152C9.87688 5.30196 9.84985 5.10034 9.9 4.91087C9.95014 4.72141 10.0734 4.55956 10.2427 4.46081C10.7067 4.19305 11.1924 4.09486 11.6452 4.12824Z" fill="#404040"/>
<path d="M6.49187 3.84912L3.09535 8.05104C2.90286 8.28933 2.87699 8.62157 3.03028 8.88679L5.10665 12.4771C5.25928 12.7413 5.55838 12.8848 5.85998 12.8386L11.1999 12.0014C9.90772 11.2761 8.71372 10.0701 7.81635 8.51663C6.91856 6.96249 6.47362 5.33031 6.49187 3.84912Z" fill="#404040"/>
<path d="M3.4776 7.78296C3.37149 7.79376 3.26896 7.82736 3.17704 7.88145L2.25345 8.41155C0.507366 9.41913 0.11614 11.2821 0.854411 12.5376C1.59268 13.7931 3.39713 14.3741 5.12256 13.3847C5.12443 13.3847 5.12629 13.3847 5.12816 13.3847L6.05175 12.8491C6.22116 12.7504 6.34449 12.5885 6.39469 12.399C6.44489 12.2094 6.41786 12.0077 6.31952 11.8381L4.1882 8.14923C4.11722 8.02662 4.01256 7.92695 3.88663 7.86205C3.76069 7.79715 3.61865 7.76963 3.4776 7.78296Z" fill="#404040"/>
<path d="M7.0746 13.0164C6.99341 13.1646 6.87347 13.2881 6.72757 13.3735L5.56358 14.0488H5.55491C4.52227 14.6409 3.47176 14.775 2.5488 14.5953L4.05692 17.211C4.0607 17.2164 4.06455 17.2217 4.06847 17.2269C4.66222 18.1866 6.02715 18.752 7.25968 18.0743C7.26547 18.0724 7.27125 18.0705 7.277 18.0685C8.39541 17.4231 8.78034 15.9738 8.13444 14.8556L7.0746 13.0164Z" fill="#404040"/>
</svg>
