<svg width="21" height="20" viewBox="0 0 21 20" fill="none" xmlns="http://www.w3.org/2000/svg">
<path d="M15.7341 0H5.72906C2.96768 0 0.726562 2.23112 0.726562 4.98249V10.9655V11.966C0.726562 14.7174 2.96768 16.9485 5.72906 16.9485H7.22981C7.49995 16.9485 7.86013 17.1286 8.03021 17.3487L9.53096 19.3397C10.1913 20.2201 11.2718 20.2201 11.9322 19.3397L13.4329 17.3487C13.623 17.0985 13.9232 16.9485 14.2333 16.9485H15.7341C18.4954 16.9485 20.7366 14.7174 20.7366 11.966V4.98249C20.7366 2.23112 18.4954 0 15.7341 0ZM6.72956 10.005C6.16928 10.005 5.72906 9.55478 5.72906 9.0045C5.72906 8.45423 6.17929 8.004 6.72956 8.004C7.27984 8.004 7.73006 8.45423 7.73006 9.0045C7.73006 9.55478 7.28984 10.005 6.72956 10.005ZM10.7316 10.005C10.1713 10.005 9.73106 9.55478 9.73106 9.0045C9.73106 8.45423 10.1813 8.004 10.7316 8.004C11.2818 8.004 11.7321 8.45423 11.7321 9.0045C11.7321 9.55478 11.2918 10.005 10.7316 10.005ZM14.7336 10.005C14.1733 10.005 13.7331 9.55478 13.7331 9.0045C13.7331 8.45423 14.1833 8.004 14.7336 8.004C15.2838 8.004 15.7341 8.45423 15.7341 9.0045C15.7341 9.55478 15.2938 10.005 14.7336 10.005Z" fill="#404040"/>
</svg>
