<svg viewBox="0 0 121 121" fill="none" xmlns="http://www.w3.org/2000/svg">
<path d="M104.444 60.5C104.444 84.7699 84.7699 104.444 60.5 104.444M104.444 60.5C104.444 36.2302 84.7699 16.5556 60.5 16.5556M104.444 60.5H117M60.5 104.444C36.2302 104.444 16.5556 84.7699 16.5556 60.5M60.5 104.444V117M60.5 16.5556C36.2302 16.5556 16.5556 36.2302 16.5556 60.5M60.5 16.5556V4M16.5556 60.5H4M79.3333 60.5C79.3333 70.9016 70.9016 79.3333 60.5 79.3333C50.0983 79.3333 41.6667 70.9016 41.6667 60.5C41.6667 50.0983 50.0983 41.6667 60.5 41.6667C70.9016 41.6667 79.3333 50.0983 79.3333 60.5Z" stroke-width="7" stroke-linecap="round" stroke-linejoin="round"/>
</svg>
