<svg width="16" height="17" viewBox="0 0 16 17" fill="none" xmlns="http://www.w3.org/2000/svg">
<path d="M12.6897 2.70691V0.5H0V14.0173C0 15.3862 1.11378 16.5 2.48275 16.5H13.5172C14.8862 16.5 16 15.3862 16 14.0173V2.70691H12.6897ZM10.4827 12.6379H2.20691V10.9827H10.4828V12.6379H10.4827ZM10.4827 9.32759H2.20691V7.67241H10.4828V9.32759H10.4827ZM10.4827 4.36206V6.01725H2.20691V4.36206V2.70691H10.4828V4.36206H10.4827ZM14.3448 14.0173C14.3448 14.4736 13.9736 14.8448 13.5172 14.8448C13.0609 14.8448 12.6896 14.4736 12.6896 14.0173V4.36206H14.3448V14.0173Z" fill="#404040"/>
</svg>
