<svg width="39" height="38" viewBox="0 0 39 38" fill="none" xmlns="http://www.w3.org/2000/svg">
<path d="M30.3407 30.0381C29.0444 29.0038 25.0059 27.0138 24.0095 26.7845C23.0152 26.5532 21.8114 27.5149 21.4799 28.709C21.1465 29.9038 20.5248 29.7907 20.5248 29.7907C20.5248 29.7907 18.1294 28.9106 13.7478 24.5458C9.36557 20.1797 8.47978 17.7875 8.47978 17.7875C8.47978 17.7875 8.36284 17.1658 9.55701 16.8278C10.7486 16.4932 11.7063 15.2855 11.4725 14.2911C11.24 13.2967 9.23388 9.26402 8.19581 7.97344C7.15525 6.68293 5.14525 7.34845 4.70335 7.67026C4.25888 7.99089 -0.41243 10.9606 0.99246 16.429C2.39918 21.8981 5.41705 26.2732 8.73355 29.5788C12.0507 32.8831 16.4367 35.8842 21.9103 37.2704C27.3832 38.6573 30.3362 33.9751 30.6555 33.5306C30.9753 33.0874 31.6331 31.0742 30.3407 30.0381Z" fill="#222222"/>
<path d="M18.8418 13.8704C19.5676 14.2263 20.722 14.8867 22.06 16.224C23.3981 17.5621 24.0578 18.7164 24.4136 19.4416C24.7875 20.2041 25.0637 20.3577 25.2872 20.3056C25.6559 20.2201 25.7786 20.1212 25.8127 19.3524C25.8409 18.6972 25.5275 16.7431 23.5342 14.7498C21.5409 12.7566 19.5862 12.4438 18.9323 12.472C18.1627 12.5048 18.0651 12.6281 17.9797 12.9981C17.9276 13.2204 18.0792 13.4972 18.8418 13.8704Z" fill="#222222"/>
<path d="M20.0096 6.177C19.0705 6.17634 18.8334 6.7577 18.8051 6.98316C18.7473 7.43863 19.0833 7.80794 19.7808 8.00774C20.5786 8.23576 23.7391 9.24942 26.3869 11.8972C29.0354 14.5451 30.0497 17.7061 30.2771 18.5039C30.4762 19.2009 30.8449 19.5363 31.3009 19.4791C31.5276 19.452 32.1083 19.2144 32.1071 18.2753C32.1077 17.532 31.6535 13.64 28.1488 10.134C24.6449 6.62983 20.7509 6.17627 20.0096 6.177Z" fill="#222222"/>
<path d="M32.7933 5.49084C27.7732 0.47082 22.477 0.0385236 21.5667 0.0146945C20.4554 -0.0135338 20.0147 0.484971 20.0154 0.996234C20.0147 1.43176 20.4612 1.87945 21.1254 2.05036C22.1223 2.30595 26.0741 2.92844 30.7145 7.56889C35.3562 12.2093 35.9774 16.1618 36.2343 17.1594C36.4046 17.8223 36.853 18.2694 37.2878 18.2694C37.7997 18.2694 38.2982 17.8293 38.2687 16.7187C38.2456 15.8079 37.8133 10.5116 32.7933 5.49084Z" fill="#222222"/>
</svg>
