<svg width="26" height="17" viewBox="0 0 26 17" fill="none" xmlns="http://www.w3.org/2000/svg">
<path d="M8.10411 3.64835C8.10411 5.38724 6.91052 6.79695 5.4382 6.79695C3.96601 6.79695 2.77267 5.38724 2.77267 3.64835C2.77267 1.90959 3.96601 0.5 5.4382 0.5C6.91052 0.5 8.10411 1.90959 8.10411 3.64835Z" fill="#404040"/>
<path d="M8.47675 9.20055C8.66928 9.08317 8.8823 9.00666 9.10291 8.97014C8.65499 8.33813 8.33762 7.66017 8.15428 6.84879C8.1041 6.55229 7.69817 6.51751 7.39632 6.76346C6.83164 7.2238 6.17293 7.53185 5.43807 7.53185C4.68906 7.53185 4.00004 7.23386 3.44766 6.73514C3.27139 6.5759 3.01166 6.5518 2.80882 6.67564C1.76007 7.31634 0.966213 8.33316 0.619901 9.5409C0.526864 9.86448 0.592203 10.2141 0.79517 10.4834C0.998386 10.7525 1.31588 10.9111 1.653 10.9111H6.45614C7.03113 10.2478 7.70972 9.66872 8.47675 9.20055Z" fill="#404040"/>
<path d="M17.8961 3.64835C17.8961 5.38724 19.0895 6.79695 20.5619 6.79695C22.0343 6.79695 23.2275 5.38724 23.2275 3.64835C23.2275 1.90959 22.0343 0.5 20.5619 0.5C19.0895 0.5 17.8961 1.90959 17.8961 3.64835Z" fill="#404040"/>
<path d="M17.5233 9.20055C17.3308 9.08317 17.1176 9.00666 16.8972 8.97014C17.3451 8.33813 17.6624 7.66017 17.8458 6.84879C17.8961 6.55229 18.302 6.51751 18.6039 6.76346C19.1685 7.2238 19.8271 7.53185 20.562 7.53185C21.3109 7.53185 22 7.23386 22.5525 6.73514C22.7288 6.5759 22.9884 6.5518 23.1913 6.67564C24.2401 7.31634 25.0341 8.33316 25.3802 9.5409C25.4731 9.86448 25.4079 10.2141 25.205 10.4834C25.0017 10.7525 24.6843 10.9111 24.3473 10.9111H19.5439C18.9689 10.2478 18.2905 9.66872 17.5233 9.20055Z" fill="#404040"/>
<path d="M20.2635 14.394C19.742 12.5737 18.5592 11.0346 16.9934 10.0475C16.6845 9.85294 16.2835 9.88437 16.0095 10.1258C15.169 10.866 14.1291 11.3066 13 11.3066C11.8486 11.3066 10.7901 10.8488 9.94108 10.0825C9.67004 9.83767 9.27118 9.80077 8.95952 9.99132C7.34759 10.9756 6.12755 12.5382 5.59554 14.3941C5.45257 14.892 5.55281 15.4286 5.86459 15.8427C6.17712 16.2563 6.66491 16.4999 7.18313 16.4999H18.6759C19.1942 16.4999 19.6824 16.2571 19.9948 15.8427C20.3067 15.4285 20.4064 14.8923 20.2635 14.394Z" fill="#404040"/>
<path d="M17.0967 5.33829C17.0967 8.01053 15.2626 10.1771 13 10.1771C10.7375 10.1771 8.9035 8.01053 8.9035 5.33829C8.9035 2.66581 10.7375 0.5 13 0.5C15.2627 0.5 17.0967 2.66593 17.0967 5.33829Z" fill="#404040"/>
</svg>
