<svg width="22" height="23" viewBox="0 0 22 23" xmlns="http://www.w3.org/2000/svg">
<path d="M9.44686 13.0532L20.3661 2.13388M9.57955 13.3942L12.3126 20.4221C12.5533 21.0412 12.6738 21.3508 12.8472 21.4412C12.9976 21.5195 13.1768 21.5196 13.3271 21.4414C13.5007 21.3513 13.6215 21.0419 13.863 20.423L20.7164 2.861C20.9345 2.30237 21.0435 2.02306 20.9838 1.84458C20.932 1.68957 20.8105 1.56794 20.6554 1.51616C20.477 1.45654 20.1976 1.56553 19.639 1.78353L2.07698 8.63701C1.45814 8.87851 1.14873 8.99925 1.05855 9.17283C0.980383 9.32329 0.980487 9.50242 1.05884 9.6528C1.14921 9.82626 1.45877 9.94668 2.07788 10.1874L9.10576 12.9205C9.23138 12.9693 9.2942 12.9938 9.34713 13.0315C9.39403 13.0649 9.435 13.106 9.46849 13.1529C9.50624 13.2058 9.53067 13.2686 9.57955 13.3942Z" stroke="white" stroke-width="2" stroke-linecap="round" stroke-linejoin="round"/>
</svg>
