<svg width="20" height="17" viewBox="0 0 20 17" fill="none" xmlns="http://www.w3.org/2000/svg">
<mask id="path-1-outside-1_2193_433" maskUnits="userSpaceOnUse" x="-0.599014" y="0" width="21" height="17" fill="black">
<rect fill="white" x="-0.599014" width="21" height="17"/>
<path d="M19.5217 5.51135C19.4188 5.40831 19.2517 5.40831 19.1487 5.51135L17.5057 7.15438C17.4629 7.19716 17.4362 7.25332 17.4299 7.3135C17.2991 8.56502 16.7371 9.7443 15.8473 10.6341L15.4569 11.0245L12.6199 8.18757C12.7994 8.22994 12.975 8.25137 13.1456 8.25137C13.3958 8.25137 13.6352 8.20563 13.8601 8.11359C13.9949 8.05844 14.0595 7.9044 14.0044 7.76959C13.9492 7.6347 13.7951 7.57022 13.6604 7.62532C12.5741 8.06973 11.3218 6.88696 11.164 6.73165L10.4102 5.97786C10.5038 5.58098 10.423 5.15505 10.1824 4.80901C9.91031 4.41789 9.4778 4.1936 8.99387 4.1936L7.1681 4.20667C7.16648 4.20667 7.16485 4.20667 7.16327 4.20667C6.98849 4.20667 6.82414 4.13894 6.7 4.01566C6.57473 3.89124 6.50574 3.72546 6.50578 3.54881V3.52134C6.50586 3.16695 6.78335 2.87838 7.1375 2.86442L10.4624 2.73342C11.6624 2.68619 12.8584 3.0506 13.8284 3.75951C13.9335 3.83621 14.0787 3.82501 14.1706 3.73305L15.9169 1.98677C16.0199 1.88378 16.0199 1.71675 15.9169 1.61376C15.8139 1.51072 15.6469 1.51072 15.5438 1.61376L13.9542 3.20347C12.9235 2.51039 11.6849 2.15738 10.4416 2.20628L7.11672 2.33727C7.10889 2.3376 7.10122 2.33829 7.09347 2.33877L5.83193 1.07728C5.72894 0.974241 5.56191 0.974241 5.45892 1.07728C5.35588 1.18027 5.35588 1.3473 5.45892 1.4503L6.5283 2.51968C6.19643 2.72965 5.97835 3.09954 5.97823 3.5213V3.54877C5.97815 3.86701 6.10249 4.16577 6.32824 4.39001C6.55403 4.61426 6.8534 4.73653 7.17187 4.73422L8.99574 4.72116C9.41587 4.72116 9.64816 4.96492 9.74921 5.11024C9.82619 5.22091 9.87777 5.34387 9.90289 5.47056L9.81247 5.38015C9.70948 5.27711 9.54245 5.27711 9.43945 5.38015C9.33642 5.48314 9.33642 5.65017 9.43945 5.75317L15.3913 11.705C15.6483 11.962 15.6483 12.3802 15.3913 12.6372C15.1344 12.8941 14.7164 12.8942 14.4595 12.6375L10.6684 8.84653C10.5654 8.74349 10.3984 8.74349 10.2954 8.84653C10.1924 8.94952 10.1924 9.11655 10.2954 9.21954L14.3788 13.3029C14.6358 13.5599 14.6358 13.9781 14.3788 14.2351C14.2543 14.3596 14.0888 14.4282 13.9126 14.4282C13.7366 14.4282 13.571 14.3596 13.4466 14.2351L9.57568 10.3643C9.47265 10.2613 9.30566 10.2613 9.20266 10.3643C9.09967 10.4672 9.09963 10.6343 9.20266 10.7373L12.3745 13.9092C12.6313 14.1662 12.6312 14.5842 12.3743 14.8411C12.1172 15.0981 11.699 15.0981 11.442 14.8411L7.99721 11.3963C7.89421 11.2932 7.72718 11.2932 7.62419 11.3963C7.52115 11.4993 7.52115 11.6663 7.62419 11.7693L10.1794 14.3245L10.1795 14.3246C10.4365 14.5816 10.4365 14.9998 10.1795 15.2568C9.92253 15.5138 9.5043 15.5138 9.2473 15.2568L4.62437 10.6341C3.73459 9.7443 3.17255 8.56502 3.0418 7.3135C3.03551 7.25332 3.00876 7.19716 2.96595 7.15438L0.851281 5.03967C0.748287 4.93664 0.581256 4.93664 0.478262 5.03967C0.375227 5.14267 0.375227 5.3097 0.478262 5.41269L2.52768 7.46211C2.6887 8.7986 3.29855 10.0543 4.25135 11.0071L4.64036 11.3961C4.49553 11.5966 4.41716 11.8366 4.41716 12.0888C4.41716 12.4058 4.54061 12.7038 4.76474 12.9279C4.99609 13.1593 5.29996 13.275 5.60387 13.275C5.63378 13.275 5.66365 13.2735 5.69347 13.2713C5.68329 13.3343 5.67781 13.3985 5.67781 13.4635C5.67781 13.7805 5.80126 14.0785 6.02538 14.3027C6.25673 14.534 6.5606 14.6497 6.86451 14.6497C6.92364 14.6497 6.98277 14.6452 7.04137 14.6364C6.9876 14.9962 7.09875 15.3761 7.3751 15.6524C7.59923 15.8766 7.89726 16 8.21423 16C8.49676 16 8.76406 15.9017 8.9776 15.7217C9.19244 15.8917 9.4528 15.977 9.71337 15.977C10.0172 15.977 10.3212 15.8613 10.5525 15.63C10.7249 15.4576 10.8329 15.245 10.8769 15.0221L11.0689 15.2142C11.3003 15.4456 11.6042 15.5612 11.9081 15.5612C12.212 15.5612 12.516 15.4455 12.7473 15.2142C12.9197 15.0418 13.0277 14.8292 13.0716 14.6064L13.0735 14.6082C13.2976 14.8323 13.5956 14.9558 13.9126 14.9558C14.2297 14.9558 14.5277 14.8323 14.7519 14.6082C15.0907 14.2694 15.181 13.7751 15.0237 13.353C15.2939 13.3306 15.558 13.2166 15.7643 13.0102C16.205 12.5696 16.2257 11.8661 15.8271 11.4003L16.2203 11.0071C17.1731 10.0543 17.783 8.79856 17.944 7.46207L19.5218 5.88432C19.6248 5.78133 19.6248 5.61434 19.5217 5.51135ZM5.1378 12.5549C5.0133 12.4304 4.94472 12.2649 4.94472 12.0888C4.94472 11.9786 4.97162 11.8725 5.02226 11.778L5.91472 12.6704C5.82025 12.7211 5.71413 12.748 5.60387 12.748C5.42783 12.7481 5.2623 12.6795 5.1378 12.5549ZM6.39844 13.9297C6.27394 13.8052 6.20536 13.6397 6.20536 13.4636C6.20536 13.3251 6.24833 13.1935 6.32706 13.0828L7.24516 14.0009C6.988 14.1832 6.6287 14.1599 6.39844 13.9297ZM7.74816 15.2794C7.51791 15.0491 7.49461 14.6899 7.6769 14.4327L8.59501 15.3508C8.48438 15.4295 8.35274 15.4725 8.21423 15.4725C8.0382 15.4725 7.87267 15.4039 7.74816 15.2794Z"/>
</mask>
<path d="M19.5217 5.51135C19.4188 5.40831 19.2517 5.40831 19.1487 5.51135L17.5057 7.15438C17.4629 7.19716 17.4362 7.25332 17.4299 7.3135C17.2991 8.56502 16.7371 9.7443 15.8473 10.6341L15.4569 11.0245L12.6199 8.18757C12.7994 8.22994 12.975 8.25137 13.1456 8.25137C13.3958 8.25137 13.6352 8.20563 13.8601 8.11359C13.9949 8.05844 14.0595 7.9044 14.0044 7.76959C13.9492 7.6347 13.7951 7.57022 13.6604 7.62532C12.5741 8.06973 11.3218 6.88696 11.164 6.73165L10.4102 5.97786C10.5038 5.58098 10.423 5.15505 10.1824 4.80901C9.91031 4.41789 9.4778 4.1936 8.99387 4.1936L7.1681 4.20667C7.16648 4.20667 7.16485 4.20667 7.16327 4.20667C6.98849 4.20667 6.82414 4.13894 6.7 4.01566C6.57473 3.89124 6.50574 3.72546 6.50578 3.54881V3.52134C6.50586 3.16695 6.78335 2.87838 7.1375 2.86442L10.4624 2.73342C11.6624 2.68619 12.8584 3.0506 13.8284 3.75951C13.9335 3.83621 14.0787 3.82501 14.1706 3.73305L15.9169 1.98677C16.0199 1.88378 16.0199 1.71675 15.9169 1.61376C15.8139 1.51072 15.6469 1.51072 15.5438 1.61376L13.9542 3.20347C12.9235 2.51039 11.6849 2.15738 10.4416 2.20628L7.11672 2.33727C7.10889 2.3376 7.10122 2.33829 7.09347 2.33877L5.83193 1.07728C5.72894 0.974241 5.56191 0.974241 5.45892 1.07728C5.35588 1.18027 5.35588 1.3473 5.45892 1.4503L6.5283 2.51968C6.19643 2.72965 5.97835 3.09954 5.97823 3.5213V3.54877C5.97815 3.86701 6.10249 4.16577 6.32824 4.39001C6.55403 4.61426 6.8534 4.73653 7.17187 4.73422L8.99574 4.72116C9.41587 4.72116 9.64816 4.96492 9.74921 5.11024C9.82619 5.22091 9.87777 5.34387 9.90289 5.47056L9.81247 5.38015C9.70948 5.27711 9.54245 5.27711 9.43945 5.38015C9.33642 5.48314 9.33642 5.65017 9.43945 5.75317L15.3913 11.705C15.6483 11.962 15.6483 12.3802 15.3913 12.6372C15.1344 12.8941 14.7164 12.8942 14.4595 12.6375L10.6684 8.84653C10.5654 8.74349 10.3984 8.74349 10.2954 8.84653C10.1924 8.94952 10.1924 9.11655 10.2954 9.21954L14.3788 13.3029C14.6358 13.5599 14.6358 13.9781 14.3788 14.2351C14.2543 14.3596 14.0888 14.4282 13.9126 14.4282C13.7366 14.4282 13.571 14.3596 13.4466 14.2351L9.57568 10.3643C9.47265 10.2613 9.30566 10.2613 9.20266 10.3643C9.09967 10.4672 9.09963 10.6343 9.20266 10.7373L12.3745 13.9092C12.6313 14.1662 12.6312 14.5842 12.3743 14.8411C12.1172 15.0981 11.699 15.0981 11.442 14.8411L7.99721 11.3963C7.89421 11.2932 7.72718 11.2932 7.62419 11.3963C7.52115 11.4993 7.52115 11.6663 7.62419 11.7693L10.1794 14.3245L10.1795 14.3246C10.4365 14.5816 10.4365 14.9998 10.1795 15.2568C9.92253 15.5138 9.5043 15.5138 9.2473 15.2568L4.62437 10.6341C3.73459 9.7443 3.17255 8.56502 3.0418 7.3135C3.03551 7.25332 3.00876 7.19716 2.96595 7.15438L0.851281 5.03967C0.748287 4.93664 0.581256 4.93664 0.478262 5.03967C0.375227 5.14267 0.375227 5.3097 0.478262 5.41269L2.52768 7.46211C2.6887 8.7986 3.29855 10.0543 4.25135 11.0071L4.64036 11.3961C4.49553 11.5966 4.41716 11.8366 4.41716 12.0888C4.41716 12.4058 4.54061 12.7038 4.76474 12.9279C4.99609 13.1593 5.29996 13.275 5.60387 13.275C5.63378 13.275 5.66365 13.2735 5.69347 13.2713C5.68329 13.3343 5.67781 13.3985 5.67781 13.4635C5.67781 13.7805 5.80126 14.0785 6.02538 14.3027C6.25673 14.534 6.5606 14.6497 6.86451 14.6497C6.92364 14.6497 6.98277 14.6452 7.04137 14.6364C6.9876 14.9962 7.09875 15.3761 7.3751 15.6524C7.59923 15.8766 7.89726 16 8.21423 16C8.49676 16 8.76406 15.9017 8.9776 15.7217C9.19244 15.8917 9.4528 15.977 9.71337 15.977C10.0172 15.977 10.3212 15.8613 10.5525 15.63C10.7249 15.4576 10.8329 15.245 10.8769 15.0221L11.0689 15.2142C11.3003 15.4456 11.6042 15.5612 11.9081 15.5612C12.212 15.5612 12.516 15.4455 12.7473 15.2142C12.9197 15.0418 13.0277 14.8292 13.0716 14.6064L13.0735 14.6082C13.2976 14.8323 13.5956 14.9558 13.9126 14.9558C14.2297 14.9558 14.5277 14.8323 14.7519 14.6082C15.0907 14.2694 15.181 13.7751 15.0237 13.353C15.2939 13.3306 15.558 13.2166 15.7643 13.0102C16.205 12.5696 16.2257 11.8661 15.8271 11.4003L16.2203 11.0071C17.1731 10.0543 17.783 8.79856 17.944 7.46207L19.5218 5.88432C19.6248 5.78133 19.6248 5.61434 19.5217 5.51135ZM5.1378 12.5549C5.0133 12.4304 4.94472 12.2649 4.94472 12.0888C4.94472 11.9786 4.97162 11.8725 5.02226 11.778L5.91472 12.6704C5.82025 12.7211 5.71413 12.748 5.60387 12.748C5.42783 12.7481 5.2623 12.6795 5.1378 12.5549ZM6.39844 13.9297C6.27394 13.8052 6.20536 13.6397 6.20536 13.4636C6.20536 13.3251 6.24833 13.1935 6.32706 13.0828L7.24516 14.0009C6.988 14.1832 6.6287 14.1599 6.39844 13.9297ZM7.74816 15.2794C7.51791 15.0491 7.49461 14.6899 7.6769 14.4327L8.59501 15.3508C8.48438 15.4295 8.35274 15.4725 8.21423 15.4725C8.0382 15.4725 7.87267 15.4039 7.74816 15.2794Z" fill="#555555"/>
<path d="M19.5217 5.51135C19.4188 5.40831 19.2517 5.40831 19.1487 5.51135L17.5057 7.15438C17.4629 7.19716 17.4362 7.25332 17.4299 7.3135C17.2991 8.56502 16.7371 9.7443 15.8473 10.6341L15.4569 11.0245L12.6199 8.18757C12.7994 8.22994 12.975 8.25137 13.1456 8.25137C13.3958 8.25137 13.6352 8.20563 13.8601 8.11359C13.9949 8.05844 14.0595 7.9044 14.0044 7.76959C13.9492 7.6347 13.7951 7.57022 13.6604 7.62532C12.5741 8.06973 11.3218 6.88696 11.164 6.73165L10.4102 5.97786C10.5038 5.58098 10.423 5.15505 10.1824 4.80901C9.91031 4.41789 9.4778 4.1936 8.99387 4.1936L7.1681 4.20667C7.16648 4.20667 7.16485 4.20667 7.16327 4.20667C6.98849 4.20667 6.82414 4.13894 6.7 4.01566C6.57473 3.89124 6.50574 3.72546 6.50578 3.54881V3.52134C6.50586 3.16695 6.78335 2.87838 7.1375 2.86442L10.4624 2.73342C11.6624 2.68619 12.8584 3.0506 13.8284 3.75951C13.9335 3.83621 14.0787 3.82501 14.1706 3.73305L15.9169 1.98677C16.0199 1.88378 16.0199 1.71675 15.9169 1.61376C15.8139 1.51072 15.6469 1.51072 15.5438 1.61376L13.9542 3.20347C12.9235 2.51039 11.6849 2.15738 10.4416 2.20628L7.11672 2.33727C7.10889 2.3376 7.10122 2.33829 7.09347 2.33877L5.83193 1.07728C5.72894 0.974241 5.56191 0.974241 5.45892 1.07728C5.35588 1.18027 5.35588 1.3473 5.45892 1.4503L6.5283 2.51968C6.19643 2.72965 5.97835 3.09954 5.97823 3.5213V3.54877C5.97815 3.86701 6.10249 4.16577 6.32824 4.39001C6.55403 4.61426 6.8534 4.73653 7.17187 4.73422L8.99574 4.72116C9.41587 4.72116 9.64816 4.96492 9.74921 5.11024C9.82619 5.22091 9.87777 5.34387 9.90289 5.47056L9.81247 5.38015C9.70948 5.27711 9.54245 5.27711 9.43945 5.38015C9.33642 5.48314 9.33642 5.65017 9.43945 5.75317L15.3913 11.705C15.6483 11.962 15.6483 12.3802 15.3913 12.6372C15.1344 12.8941 14.7164 12.8942 14.4595 12.6375L10.6684 8.84653C10.5654 8.74349 10.3984 8.74349 10.2954 8.84653C10.1924 8.94952 10.1924 9.11655 10.2954 9.21954L14.3788 13.3029C14.6358 13.5599 14.6358 13.9781 14.3788 14.2351C14.2543 14.3596 14.0888 14.4282 13.9126 14.4282C13.7366 14.4282 13.571 14.3596 13.4466 14.2351L9.57568 10.3643C9.47265 10.2613 9.30566 10.2613 9.20266 10.3643C9.09967 10.4672 9.09963 10.6343 9.20266 10.7373L12.3745 13.9092C12.6313 14.1662 12.6312 14.5842 12.3743 14.8411C12.1172 15.0981 11.699 15.0981 11.442 14.8411L7.99721 11.3963C7.89421 11.2932 7.72718 11.2932 7.62419 11.3963C7.52115 11.4993 7.52115 11.6663 7.62419 11.7693L10.1794 14.3245L10.1795 14.3246C10.4365 14.5816 10.4365 14.9998 10.1795 15.2568C9.92253 15.5138 9.5043 15.5138 9.2473 15.2568L4.62437 10.6341C3.73459 9.7443 3.17255 8.56502 3.0418 7.3135C3.03551 7.25332 3.00876 7.19716 2.96595 7.15438L0.851281 5.03967C0.748287 4.93664 0.581256 4.93664 0.478262 5.03967C0.375227 5.14267 0.375227 5.3097 0.478262 5.41269L2.52768 7.46211C2.6887 8.7986 3.29855 10.0543 4.25135 11.0071L4.64036 11.3961C4.49553 11.5966 4.41716 11.8366 4.41716 12.0888C4.41716 12.4058 4.54061 12.7038 4.76474 12.9279C4.99609 13.1593 5.29996 13.275 5.60387 13.275C5.63378 13.275 5.66365 13.2735 5.69347 13.2713C5.68329 13.3343 5.67781 13.3985 5.67781 13.4635C5.67781 13.7805 5.80126 14.0785 6.02538 14.3027C6.25673 14.534 6.5606 14.6497 6.86451 14.6497C6.92364 14.6497 6.98277 14.6452 7.04137 14.6364C6.9876 14.9962 7.09875 15.3761 7.3751 15.6524C7.59923 15.8766 7.89726 16 8.21423 16C8.49676 16 8.76406 15.9017 8.9776 15.7217C9.19244 15.8917 9.4528 15.977 9.71337 15.977C10.0172 15.977 10.3212 15.8613 10.5525 15.63C10.7249 15.4576 10.8329 15.245 10.8769 15.0221L11.0689 15.2142C11.3003 15.4456 11.6042 15.5612 11.9081 15.5612C12.212 15.5612 12.516 15.4455 12.7473 15.2142C12.9197 15.0418 13.0277 14.8292 13.0716 14.6064L13.0735 14.6082C13.2976 14.8323 13.5956 14.9558 13.9126 14.9558C14.2297 14.9558 14.5277 14.8323 14.7519 14.6082C15.0907 14.2694 15.181 13.7751 15.0237 13.353C15.2939 13.3306 15.558 13.2166 15.7643 13.0102C16.205 12.5696 16.2257 11.8661 15.8271 11.4003L16.2203 11.0071C17.1731 10.0543 17.783 8.79856 17.944 7.46207L19.5218 5.88432C19.6248 5.78133 19.6248 5.61434 19.5217 5.51135ZM5.1378 12.5549C5.0133 12.4304 4.94472 12.2649 4.94472 12.0888C4.94472 11.9786 4.97162 11.8725 5.02226 11.778L5.91472 12.6704C5.82025 12.7211 5.71413 12.748 5.60387 12.748C5.42783 12.7481 5.2623 12.6795 5.1378 12.5549ZM6.39844 13.9297C6.27394 13.8052 6.20536 13.6397 6.20536 13.4636C6.20536 13.3251 6.24833 13.1935 6.32706 13.0828L7.24516 14.0009C6.988 14.1832 6.6287 14.1599 6.39844 13.9297ZM7.74816 15.2794C7.51791 15.0491 7.49461 14.6899 7.6769 14.4327L8.59501 15.3508C8.48438 15.4295 8.35274 15.4725 8.21423 15.4725C8.0382 15.4725 7.87267 15.4039 7.74816 15.2794Z" stroke="#555555" stroke-width="0.6" mask="url(#path-1-outside-1_2193_433)"/>
</svg>
