<svg viewBox="0 0 41 39" xmlns="http://www.w3.org/2000/svg">
<path d="M8.19494 38.9642L20.4817 32.4985L32.7685 38.9573C32.8253 38.987 32.8893 39.0003 32.9532 38.9957C33.0171 38.991 33.0785 38.9686 33.1304 38.931C33.1823 38.8935 33.2227 38.8421 33.2471 38.7828C33.2715 38.7235 33.2788 38.6586 33.2683 38.5954L30.9247 24.9128L40.8609 15.2246C40.9064 15.1798 40.9385 15.1232 40.9536 15.0611C40.9688 14.9991 40.9664 14.934 40.9467 14.8733C40.9271 14.8125 40.8909 14.7584 40.8423 14.717C40.7937 14.6756 40.7345 14.6485 40.6714 14.6387L26.9336 12.6398L20.7919 0.194421C20.7637 0.136151 20.7196 0.0870077 20.6648 0.0526224C20.6099 0.0182371 20.5465 0 20.4817 0C20.417 0 20.3536 0.0182371 20.2987 0.0526224C20.2438 0.0870077 20.1998 0.136151 20.1716 0.194421L14.0299 12.6432L0.292095 14.6422C0.228974 14.6519 0.1698 14.679 0.121177 14.7204C0.0725541 14.7618 0.0363951 14.8159 0.016735 14.8767C-0.0029251 14.9375 -0.0053134 15.0025 0.00983756 15.0646C0.0249885 15.1266 0.0570822 15.1832 0.102537 15.2281L10.0388 24.9162L7.69175 38.5989C7.68124 38.6621 7.68858 38.727 7.71293 38.7863C7.73728 38.8456 7.77768 38.8969 7.8296 38.9345C7.88151 38.9721 7.94288 38.9945 8.00681 38.9991C8.07074 39.0037 8.1347 38.9905 8.19149 38.9607L8.19494 38.9642Z" />
</svg>
