<svg width="17" height="17" viewBox="0 0 17 17" fill="none" xmlns="http://www.w3.org/2000/svg">
<path d="M8.38001 0.500842C6.29836 0.531183 4.31048 1.37153 2.83826 2.84352C1.58578 4.09953 0.786079 5.73606 0.564792 7.49597C0.343504 9.25588 0.713175 11.0394 1.61572 12.5664L0.675548 16.324L4.42539 15.3854C5.95333 16.2891 7.73838 16.6591 9.49964 16.4372C11.2609 16.2154 12.8984 15.4142 14.1545 14.1597C15.6549 12.659 16.4977 10.6238 16.4977 8.50163C16.4977 6.37951 15.6549 4.34428 14.1545 2.84352C13.3976 2.08671 12.4965 1.48943 11.5046 1.08704C10.5128 0.684646 9.45028 0.485315 8.38001 0.500842ZM7.30797 3.52771H9.67237L9.39155 9.69625H7.58878L7.30797 3.52771ZM8.49017 10.9777C8.84691 10.9777 9.14746 11.1044 9.39155 11.3578C9.64503 11.6019 9.77166 11.8979 9.77166 12.2453C9.77166 12.602 9.64503 12.9071 9.39155 13.1606C9.14746 13.4047 8.84691 13.5268 8.49017 13.5268C8.14281 13.5268 7.84225 13.4047 7.58878 13.1606C7.34469 12.9071 7.22264 12.602 7.22264 12.2453C7.22264 11.8979 7.34469 11.6019 7.58878 11.3578C7.84225 11.1044 8.14281 10.9777 8.49017 10.9777Z" fill="#404040"/>
</svg>
