<svg width="18" height="17" viewBox="0 0 18 17" fill="none" xmlns="http://www.w3.org/2000/svg">
<path fill-rule="evenodd" clip-rule="evenodd" d="M8.99807 12.6151C7.55091 12.6151 6.08067 11.756 5.22262 10.619C1.10595 10.619 0.981506 16.4999 0.981506 16.4999H17.0136C17.0136 16.4999 17.3368 10.5929 12.7073 10.5929C11.8502 11.744 10.4452 12.6151 8.99807 12.6151Z" fill="#404040"/>
<path fill-rule="evenodd" clip-rule="evenodd" d="M12.4464 5.56489C12.4464 7.25692 10.9019 10.4924 8.99506 10.4924C7.09128 10.4924 5.54578 7.25592 5.54578 5.56489C5.54578 3.87387 7.09028 2.50098 8.99506 2.50098C10.9019 2.50198 12.4464 3.87487 12.4464 5.56489Z" fill="#404040"/>
<path fill-rule="evenodd" clip-rule="evenodd" d="M13.9859 4.10484C13.9859 3.78771 13.5443 3.5318 12.9963 3.52979V2.87647C12.9963 2.77912 13.0335 0.5 9.00711 0.5C4.98278 0.5 5.01991 2.77912 5.01991 2.87647V3.55288C5.00987 3.55288 5.00184 3.54987 4.99281 3.54987C4.44787 3.54987 4.00931 3.80176 4.00931 4.11387V6.87772C4.00931 7.18783 4.44887 7.44073 4.99281 7.44073C5.53675 7.44073 5.97832 7.18783 5.97832 6.87772V4.11387C5.97832 4.07072 5.95123 4.03158 5.93517 3.99144V3.23775C5.93517 3.16851 5.64614 1.44838 9.00711 1.44838C12.3691 1.44838 12.0198 3.16851 12.0198 3.23775V4.03158C12.0138 4.05667 11.9948 4.07875 11.9948 4.10484V6.93191C11.9948 7.25005 12.4393 7.50797 12.9903 7.50797C13.0023 7.50797 13.0114 7.50395 13.0234 7.50395V8.53663H12.0359V9.5101H13.9959L13.9859 4.10484Z" fill="#404040"/>
</svg>
