<svg viewBox="0 0 4 15" xmlns="http://www.w3.org/2000/svg">
<path d="M2.0263 11.1111C3.11535 11.1111 3.99998 11.9826 3.99998 13.0556C3.99998 14.1285 3.11535 15 2.0263 15C0.937246 15 0.0526123 14.1285 0.0526123 13.0556C0.0526123 11.9826 0.937246 11.1111 2.0263 11.1111ZM2.0263 5.55556C3.11535 5.55556 3.99998 6.42708 3.99998 7.5C3.99998 8.57292 3.11535 9.44444 2.0263 9.44444C0.937246 9.44444 0.0526123 8.57292 0.0526123 7.5C0.0526123 6.42708 0.937246 5.55556 2.0263 5.55556ZM3.99998 1.94444C3.99998 3.01736 3.11535 3.88889 2.0263 3.88889C0.937246 3.88889 0.0526123 3.01736 0.0526123 1.94444C0.0526123 0.871528 0.937246 0 2.0263 0C3.11535 0 3.99998 0.871528 3.99998 1.94444Z"/>
</svg>
