<svg viewBox="0 0 36 29" xmlns="http://www.w3.org/2000/svg">
<path d="M32.5668 1.58042L25.9021 6.9159V3.16083C25.9013 2.32279 25.568 1.5193 24.9754 0.926711C24.3828 0.334121 23.5794 0.000836794 22.7413 0H3.77631C2.93826 0.000836794 2.13478 0.334121 1.54219 0.926711C0.949599 1.5193 0.616315 2.32279 0.615479 3.16083V17.3846H2.1959V3.16083C2.19631 2.74181 2.36296 2.34007 2.65925 2.04377C2.95555 1.74748 3.35729 1.58084 3.77631 1.58042H22.7413C23.1603 1.58084 23.5621 1.74748 23.8584 2.04377C24.1547 2.34007 24.3213 2.74181 24.3217 3.16083V18.965C24.3213 19.384 24.1547 19.7858 23.8584 20.0821C23.5621 20.3784 23.1603 20.545 22.7413 20.5454H18.0001V22.1258H22.7413C23.5794 22.125 24.3828 21.7917 24.9754 21.1991C25.568 20.6065 25.9013 19.803 25.9021 18.965V15.1009L32.562 20.5454H35.3846V1.58042H32.5668ZM33.8042 18.965H33.1246L25.9021 13.059V8.94042L33.1199 3.16083H33.8042V18.965ZM8.51756 20.5454H14.8392V22.1243H8.51756V28.4475H6.93714V22.1243H0.615479V20.5454H6.93714V14.2238H8.51756V20.5454Z"/>
</svg>
