<svg viewBox="0 0 38 32" xmlns="http://www.w3.org/2000/svg">
<path d="M34.9999 0H2.99995C2.39374 0 1.81236 0.240816 1.3837 0.66947C0.955049 1.09812 0.714233 1.67951 0.714233 2.28571V29.7143C0.714233 30.3205 0.955049 30.9019 1.3837 31.3305C1.81236 31.7592 2.39374 32 2.99995 32H34.9999C35.6062 32 36.1875 31.7592 36.6162 31.3305C37.0448 30.9019 37.2857 30.3205 37.2857 29.7143V2.28571C37.2857 1.67951 37.0448 1.09812 36.6162 0.66947C36.1875 0.240816 35.6062 0 34.9999 0ZM2.99995 29.7143V2.28571H34.9999V29.7143H2.99995Z" fill="#00917C"/>
<path d="M8.62279 11.4286C9.30089 11.4286 9.96377 11.2275 10.5276 10.8507C11.0914 10.474 11.5309 9.93853 11.7904 9.31204C12.0499 8.68555 12.1178 7.99618 11.9855 7.3311C11.8532 6.66603 11.5266 6.05511 11.0472 5.57562C10.5677 5.09612 9.95674 4.76958 9.29167 4.63729C8.62659 4.505 7.93722 4.5729 7.31073 4.8324C6.68424 5.0919 6.14877 5.53135 5.77203 6.09517C5.3953 6.659 5.19421 7.32188 5.19421 7.99998C5.19421 8.9093 5.55544 9.78137 6.19842 10.4244C6.8414 11.0673 7.71347 11.4286 8.62279 11.4286ZM8.62279 6.17141C8.98492 6.16915 9.33957 6.27447 9.64178 6.47401C9.94399 6.67356 10.1801 6.95834 10.3203 7.29227C10.4604 7.62619 10.4983 7.99421 10.429 8.34966C10.3598 8.70512 10.1865 9.03201 9.93126 9.28888C9.67599 9.54576 9.35019 9.72105 8.99517 9.79254C8.64016 9.86403 8.27191 9.82849 7.93712 9.69043C7.60232 9.55237 7.31606 9.31801 7.11462 9.01706C6.91319 8.71611 6.80565 8.36213 6.80564 7.99998C6.80864 7.51897 7.00105 7.05852 7.34118 6.71838C7.68132 6.37825 8.14177 6.18584 8.62279 6.18284V6.17141Z" fill="#00917C"/>
<path d="M24.4628 12.9943L18.2914 19.1657L13.7199 14.5943C13.5058 14.3814 13.2161 14.2619 12.9142 14.2619C12.6123 14.2619 12.3226 14.3814 12.1085 14.5943L5.19421 21.6V24.8343L12.9542 17.0743L16.7142 20.7771L12.4285 25.0628H15.5714L25.2285 15.4057L32.7142 22.8571V19.6343L26.0742 12.9943C25.8601 12.7814 25.5704 12.6619 25.2685 12.6619C24.9666 12.6619 24.6769 12.7814 24.4628 12.9943Z" fill="#00917C"/>
</svg>
