<svg width="16" height="14" viewBox="0 0 16 14" fill="none" xmlns="http://www.w3.org/2000/svg">
<path d="M9.04297 0C7.76465 0 6.66015 0.743156 6.13672 1.82081C5.61328 0.743187 4.50831 0 3.22997 0C1.44581 0 0 1.44581 0 3.23C0 5.01369 1.44581 6.459 3.22997 6.459H9.04297C10.8272 6.459 12.2729 5.01369 12.2729 3.23C12.2729 1.44581 10.8272 0 9.04297 0ZM3.22997 4.45119C2.55516 4.45119 2.00828 3.90381 2.00828 3.23C2.00828 2.55519 2.55516 2.00831 3.22997 2.00831C3.90381 2.00831 4.45069 2.55519 4.45069 3.23C4.45069 3.90381 3.90381 4.45119 3.22997 4.45119ZM9.04297 4.45119C8.36865 4.45119 7.82225 3.90381 7.82225 3.23C7.82225 2.55519 8.36862 2.00831 9.04297 2.00831C9.71778 2.00831 10.2647 2.55519 10.2647 3.23C10.2647 3.90381 9.71778 4.45119 9.04297 4.45119Z" fill="#404040"/>
<path d="M10.3789 7.19678H1.68214C1.33546 7.19678 1.05518 7.47706 1.05518 7.82325V12.8291C1.05518 13.1753 1.33546 13.4561 1.68214 13.4561H10.3789C10.7256 13.4561 11.0059 13.1753 11.0059 12.8291V7.82325C11.0059 7.47706 10.7256 7.19678 10.3789 7.19678Z" fill="#404040"/>
<path d="M15.7607 8.31195C15.6094 8.19329 15.4116 8.15082 15.2246 8.19573L12.167 8.94085C11.8857 9.00923 11.688 9.26116 11.688 9.55023V11.0341C11.688 11.3232 11.8857 11.5746 12.167 11.643L15.2246 12.3886C15.4116 12.4335 15.6094 12.391 15.7607 12.2724C15.9116 12.1532 16 11.9716 16 11.7792V8.80457C16 8.61273 15.9116 8.43107 15.7607 8.31195Z" fill="#404040"/>
</svg>
