<svg width="16px" viewBox="0 0 16 15" xmlns="http://www.w3.org/2000/svg">
<path d="M14 2.09136C14.275 2.09136 14.5 2.31262 14.5 2.58305V12.4108L14.3438 12.211L10.0938 6.8024C9.95312 6.62109 9.73125 6.5166 9.5 6.5166C9.26875 6.5166 9.05 6.62109 8.90625 6.8024L6.3125 10.1029L5.35938 8.79069C5.21875 8.59709 4.99375 8.48338 4.75 8.48338C4.50625 8.48338 4.28125 8.59709 4.14062 8.79376L1.64062 12.2356L1.5 12.4262V12.4169V2.58305C1.5 2.31262 1.725 2.09136 2 2.09136H14ZM2 0.616272C0.896875 0.616272 0 1.49825 0 2.58305V12.4169C0 13.5017 0.896875 14.3837 2 14.3837H14C15.1031 14.3837 16 13.5017 16 12.4169V2.58305C16 1.49825 15.1031 0.616272 14 0.616272H2ZM4.5 6.5166C4.69698 6.5166 4.89204 6.47845 5.07403 6.40432C5.25601 6.33019 5.42137 6.22154 5.56066 6.08456C5.69995 5.94759 5.81044 5.78498 5.88582 5.60601C5.9612 5.42705 6 5.23523 6 5.04152C6 4.84781 5.9612 4.656 5.88582 4.47703C5.81044 4.29807 5.69995 4.13545 5.56066 3.99848C5.42137 3.86151 5.25601 3.75285 5.07403 3.67872C4.89204 3.60459 4.69698 3.56644 4.5 3.56644C4.30302 3.56644 4.10796 3.60459 3.92597 3.67872C3.74399 3.75285 3.57863 3.86151 3.43934 3.99848C3.30005 4.13545 3.18956 4.29807 3.11418 4.47703C3.0388 4.656 3 4.84781 3 5.04152C3 5.23523 3.0388 5.42705 3.11418 5.60601C3.18956 5.78498 3.30005 5.94759 3.43934 6.08456C3.57863 6.22154 3.74399 6.33019 3.92597 6.40432C4.10796 6.47845 4.30302 6.5166 4.5 6.5166Z" />
</svg>
