<svg viewBox="0 0 102 76" xmlns="http://www.w3.org/2000/svg">
<path fill-rule="evenodd" clip-rule="evenodd" d="M15.168 22.8C15.168 10.2079 25.3759 0 37.968 0C50.5602 0 60.768 10.2079 60.768 22.8C60.768 35.3922 50.5602 45.6 37.968 45.6C25.3759 45.6 15.168 35.3922 15.168 22.8Z" />
<path d="M62.6298 35.7869C62.3993 36.2236 62.497 36.7683 62.8938 37.0621C65.8405 39.2433 69.487 40.5333 73.4345 40.5333C83.2283 40.5333 91.1678 32.5939 91.1678 22.8C91.1678 13.0061 83.2283 5.06665 73.4345 5.06665C69.487 5.06665 65.8405 6.35662 62.8938 8.53798C62.497 8.83184 62.3993 9.37626 62.6298 9.81305C64.6762 13.6911 65.8345 18.1103 65.8345 22.8C65.8345 27.4897 64.6762 31.9088 62.6298 35.7869Z" />
<path fill-rule="evenodd" clip-rule="evenodd" d="M13.3497 54.2099C19.5936 51.4997 27.7861 50.6667 37.9676 50.6667C48.1579 50.6667 56.3563 51.5012 62.6025 54.2175C69.4065 57.1759 73.5419 62.2152 75.7094 69.3303C76.7253 72.6652 74.2204 76.0001 70.7684 76.0001H5.17643C1.72035 76.0001 -0.789878 72.6601 0.22913 69.3192C2.39954 62.203 6.54123 57.1653 13.3497 54.2099Z" />
<path d="M64.915 45.7844C62.8174 45.9146 62.6942 48.7327 64.6216 49.5707C69.9031 51.8674 73.8799 55.2484 76.732 59.5637C79.0722 63.1048 82.7066 65.8666 86.9509 65.8666H95.9726C99.5558 65.8666 102.17 62.3063 100.91 58.828C100.837 58.6279 100.762 58.4293 100.684 58.2322C98.9488 53.8515 95.9751 50.6266 91.5722 48.571C87.4383 46.6412 82.2632 45.8447 76.1665 45.604L76.0662 45.6H75.9664C72.3751 45.6 68.6243 45.5538 64.915 45.7844Z" />
</svg>
