<svg viewBox="0 0 16 13" xmlns="http://www.w3.org/2000/svg">
<path d="M3.6 4.09998C2.495 4.09998 1.6 3.20498 1.6 2.09998C1.6 0.994976 2.495 0.0999756 3.6 0.0999756C4.705 0.0999756 5.6 0.994976 5.6 2.09998C5.6 3.20498 4.705 4.09998 3.6 4.09998ZM12.8 4.09998C11.695 4.09998 10.8 3.20498 10.8 2.09998C10.8 0.994976 11.695 0.0999756 12.8 0.0999756C13.905 0.0999756 14.8 0.994976 14.8 2.09998C14.8 3.20498 13.905 4.09998 12.8 4.09998ZM0 7.56748C0 6.09498 1.195 4.89998 2.6675 4.89998H3.735C4.1325 4.89998 4.51 4.98748 4.85 5.14248C4.8175 5.32248 4.8025 5.50998 4.8025 5.69998C4.8025 6.65498 5.2225 7.51248 5.885 8.09998C5.88 8.09998 5.875 8.09998 5.8675 8.09998H0.5325C0.24 8.09998 0 7.85998 0 7.56748ZM10.1325 8.09998C10.1275 8.09998 10.1225 8.09998 10.115 8.09998C10.78 7.51248 11.1975 6.65498 11.1975 5.69998C11.1975 5.50998 11.18 5.32498 11.15 5.14248C11.49 4.98498 11.8675 4.89998 12.265 4.89998H13.3325C14.805 4.89998 16 6.09498 16 7.56748C16 7.86248 15.76 8.09998 15.4675 8.09998H10.1325ZM10.4 5.69998C10.4 7.02498 9.325 8.09998 8 8.09998C6.675 8.09998 5.6 7.02498 5.6 5.69998C5.6 4.37498 6.675 3.29998 8 3.29998C9.325 3.29998 10.4 4.37498 10.4 5.69998ZM3.2 12.2325C3.2 10.3925 4.6925 8.89998 6.5325 8.89998H9.4675C11.3075 8.89998 12.8 10.3925 12.8 12.2325C12.8 12.6 12.5025 12.9 12.1325 12.9H3.8675C3.5 12.9 3.2 12.6025 3.2 12.2325Z"/>
</svg>
