<svg width="16px" viewBox="0 0 16 17" xmlns="http://www.w3.org/2000/svg">
<path d="M16 8.5C16 12.9187 12.4187 16.5 8 16.5C3.58125 16.5 0 12.9187 0 8.5C0 4.08125 3.58125 0.5 8 0.5C12.4187 0.5 16 4.08125 16 8.5ZM9 3.5C9 2.94688 8.55313 2.5 8 2.5C7.44688 2.5 7 2.94688 7 3.5C7 4.05312 7.44688 4.5 8 4.5C8.55313 4.5 9 4.05312 9 3.5ZM8 13.5C9.10312 13.5 10 12.6031 10 11.5C10 10.9563 9.78438 10.4656 9.43437 10.1062L11.4375 5.55312C11.6031 5.175 11.4313 4.73125 11.0531 4.56563C10.675 4.4 10.2312 4.57187 10.0656 4.95L8.05937 9.5C8.04062 9.5 8.01875 9.5 8 9.5C6.89687 9.5 6 10.3969 6 11.5C6 12.6031 6.89687 13.5 8 13.5ZM5.5 5C5.5 4.44688 5.05312 4 4.5 4C3.94688 4 3.5 4.44688 3.5 5C3.5 5.55312 3.94688 6 4.5 6C5.05312 6 5.5 5.55312 5.5 5ZM3 9.5C3.55312 9.5 4 9.05313 4 8.5C4 7.94688 3.55312 7.5 3 7.5C2.44688 7.5 2 7.94688 2 8.5C2 9.05313 2.44688 9.5 3 9.5ZM14 8.5C14 7.94688 13.5531 7.5 13 7.5C12.4469 7.5 12 7.94688 12 8.5C12 9.05313 12.4469 9.5 13 9.5C13.5531 9.5 14 9.05313 14 8.5Z"/>
</svg>
