<svg viewBox="0 0 14 15" fill="none" xmlns="http://www.w3.org/2000/svg">
<path d="M5.67001 0C5.32192 0 4.96604 0.114746 4.71407 0.351562C4.4621 0.588379 4.34001 0.922852 4.34001 1.25V1.875H0.350006V3.125H1.01501V13.125C1.01501 14.1528 1.91639 15 3.01001 15H10.99C12.0836 15 12.985 14.1528 12.985 13.125V3.125H13.65V1.875H9.66001V1.25C9.66001 0.922852 9.53792 0.588379 9.28594 0.351562C9.03397 0.114746 8.67809 0 8.33001 0H5.67001ZM5.67001 1.25H8.33001V1.875H5.67001V1.25ZM2.34501 3.125H11.655V13.125C11.655 13.4717 11.3589 13.75 10.99 13.75H3.01001C2.64114 13.75 2.34501 13.4717 2.34501 13.125V3.125ZM3.67501 5V11.875H5.00501V5H3.67501ZM6.33501 5V11.875H7.66501V5H6.33501ZM8.99501 5V11.875H10.325V5H8.99501Z" fill="#FF0022"/>
</svg>
