<svg viewBox="0 0 16 17" fill="none" xmlns="http://www.w3.org/2000/svg">
<path d="M8.96087 3.68213H3.8358C3.62759 3.68213 3.42739 3.69014 3.2352 3.71416C1.08107 3.89834 0 5.1716 0 7.51793V10.7211C0 13.9243 1.28127 14.5569 3.8358 14.5569H4.15612C4.33229 14.5569 4.56452 14.677 4.66862 14.8132L5.62957 16.0944C6.05399 16.663 6.74268 16.663 7.1671 16.0944L8.12805 14.8132C8.24817 14.653 8.44036 14.5569 8.64056 14.5569H8.96087C11.3072 14.5569 12.5805 13.4838 12.7646 11.3217C12.7887 11.1295 12.7967 10.9293 12.7967 10.7211V7.51793C12.7967 4.9634 11.5154 3.68213 8.96087 3.68213ZM3.60357 10.0885C3.15512 10.0885 2.80278 9.72812 2.80278 9.28768C2.80278 8.84724 3.16313 8.48689 3.60357 8.48689C4.044 8.48689 4.40436 8.84724 4.40436 9.28768C4.40436 9.72812 4.044 10.0885 3.60357 10.0885ZM6.39834 10.0885C5.94989 10.0885 5.59754 9.72812 5.59754 9.28768C5.59754 8.84724 5.9579 8.48689 6.39834 8.48689C6.83877 8.48689 7.19913 8.84724 7.19913 9.28768C7.19913 9.72812 6.84678 10.0885 6.39834 10.0885ZM9.20111 10.0885C8.75267 10.0885 8.40032 9.72812 8.40032 9.28768C8.40032 8.84724 8.76068 8.48689 9.20111 8.48689C9.64155 8.48689 10.0019 8.84724 10.0019 9.28768C10.0019 9.72812 9.64155 10.0885 9.20111 10.0885Z" fill="#404040"/>
<path d="M16 4.3148V7.51798C16 9.11956 15.5035 10.2086 14.5105 10.8092C14.2703 10.9534 13.99 10.7612 13.99 10.4809L13.998 7.51798C13.998 4.3148 12.1642 2.48099 8.96105 2.48099L4.08426 2.48899C3.80399 2.48899 3.6118 2.20872 3.75594 1.96848C4.35653 0.975496 5.44561 0.479004 7.03915 0.479004H12.1642C14.7188 0.479004 16 1.76027 16 4.3148Z" fill="#404040"/>
</svg>
