<svg viewBox="0 0 85 113" xmlns="http://www.w3.org/2000/svg">
<path d="M42.9038 0C19.674 0 0 19.7297 0 43.0967C0 67.569 22.8048 92.5958 38.1438 110.186C38.204 110.256 40.6831 113 43.736 113H44.0052C47.0617 113 49.5231 110.256 49.5833 110.186C63.9767 93.687 85 66.4779 85 43.0967C85 19.7262 69.654 0 42.9038 0ZM44.324 105.446C44.2 105.57 44.0194 105.708 43.86 105.824C43.6971 105.711 43.52 105.57 43.389 105.446L41.5367 103.321C26.9946 86.6878 7.07979 63.907 7.07979 43.0932C7.07979 23.5577 23.4848 7.05566 42.9002 7.05566C67.0863 7.05566 77.9131 25.1539 77.9131 43.0932C77.9131 58.8925 66.6117 79.8758 44.324 105.446ZM42.624 21.3824C30.8904 21.3824 21.374 30.8676 21.374 42.5705C21.374 54.2735 30.8904 63.7587 42.624 63.7587C54.3575 63.7587 63.874 54.2699 63.874 42.5705C63.874 30.8712 54.361 21.3824 42.624 21.3824ZM42.624 56.696C34.811 56.696 28.2944 50.2053 28.2944 42.4152C28.2944 34.625 34.6481 28.2897 42.461 28.2897C50.2775 28.2897 56.6277 34.625 56.6277 42.4152C56.6313 50.2053 50.4404 56.696 42.624 56.696Z"/>
</svg>
