<svg width="21" height="21" viewBox="0 0 21 21" xmlns="http://www.w3.org/2000/svg">
<path d="M10.8571 1.75C15.7321 1.75 19.6071 5.625 19.6071 10.5C19.6071 15.375 15.7321 19.25 10.8571 19.25C5.98215 19.25 2.10715 15.375 2.10715 10.5C2.10715 5.625 5.98215 1.75 10.8571 1.75ZM10.8571 0.5C5.35715 0.5 0.857147 5 0.857147 10.5C0.857147 16 5.35715 20.5 10.8571 20.5C16.3571 20.5 20.8571 16 20.8571 10.5C20.8571 5 16.3571 0.5 10.8571 0.5Z" />
<path d="M10.8571 17C8.35715 17 6.10715 15.5 5.10715 13.125L6.23215 12.625C6.98215 14.5 8.85715 15.625 10.8571 15.625C12.8571 15.625 14.7321 14.375 15.4821 12.625L16.6071 13.125C15.6071 15.625 13.3571 17 10.8571 17Z" />
<path d="M9.60715 8C9.60715 8.69 9.04715 9.25 8.35715 9.25C7.66715 9.25 7.10715 8.69 7.10715 8C7.10715 7.31 7.66715 6.75 8.35715 6.75C9.04715 6.75 9.60715 7.31 9.60715 8Z" />
<path d="M14.6071 8C14.6071 8.69 14.0471 9.25 13.3571 9.25C12.6671 9.25 12.1071 8.69 12.1071 8C12.1071 7.31 12.6671 6.75 13.3571 6.75C14.0471 6.75 14.6071 7.31 14.6071 8Z" />
</svg>
