<svg width="20" height="17" viewBox="0 0 20 17" fill="none" xmlns="http://www.w3.org/2000/svg">
<path d="M19.6471 8.99751L11.1716 0.522071C11.0588 0.411268 10.9252 0.323891 10.7784 0.264978C10.6317 0.206064 10.4747 0.176779 10.3166 0.17881H9.01221L18.7671 9.82133L12.1952 16.4494C12.307 16.5613 12.4398 16.6501 12.586 16.7106C12.7322 16.7712 12.8889 16.8024 13.0471 16.8024C13.2053 16.8024 13.362 16.7712 13.5082 16.7106C13.6543 16.6501 13.7871 16.5613 13.899 16.4494L19.6471 10.7013C19.759 10.5895 19.8477 10.4567 19.9083 10.3105C19.9689 10.1643 20 10.0076 20 9.84942C20 9.69119 19.9689 9.53452 19.9083 9.38835C19.8477 9.24217 19.759 9.10936 19.6471 8.99751Z" fill="#404040"/>
<path d="M3.82592 4.8408C4.28435 4.8408 4.65599 4.46917 4.65599 4.01073C4.65599 3.5523 4.28435 3.18066 3.82592 3.18066C3.36748 3.18066 2.99585 3.5523 2.99585 4.01073C2.99585 4.46917 3.36748 4.8408 3.82592 4.8408Z" fill="#404040"/>
<path d="M16.2893 9.02237L7.81388 0.540696C7.7026 0.426511 7.56966 0.33568 7.42285 0.273522C7.27603 0.211365 7.11828 0.179132 6.95884 0.178711H1.20454C0.885073 0.178711 0.578694 0.305617 0.3528 0.531511C0.126906 0.757405 0 1.06378 0 1.38325V7.13755C0.000432235 7.2955 0.0320844 7.4518 0.0931361 7.59746C0.154188 7.74313 0.243435 7.87529 0.355744 7.98635L8.83742 16.468C8.94928 16.5799 9.08209 16.6687 9.22826 16.7293C9.37443 16.7898 9.53111 16.821 9.68933 16.821C9.84756 16.821 10.0042 16.7898 10.1504 16.7293C10.2966 16.6687 10.4294 16.5799 10.5412 16.468L16.2893 10.72C16.5134 10.4943 16.6392 10.1892 16.6392 9.87116C16.6392 9.55314 16.5134 9.24802 16.2893 9.02237ZM9.72366 15.588L1.25446 7.13755V1.42693H6.93388L15.4093 9.83996L9.72366 15.588Z" fill="#404040"/>
</svg>
